<?xml version="1.0" encoding="utf-8"?>
<!-- Generator: Adobe Illustrator 25.2.1, SVG Export Plug-In . SVG Version: 6.00 Build 0)  -->
<svg version="1.1" id="Layer_1" xmlns="http://www.w3.org/2000/svg" xmlns:xlink="http://www.w3.org/1999/xlink" x="0px" y="0px"
	 viewBox="0 0 538.5 179.5" style="enable-background:new 0 0 538.5 179.5;" xml:space="preserve">
<style type="text/css">
	.st0{fill:#D8EBCF;}
	.st1{fill:url(#SVGID_1_);}
	.st2{fill:url(#SVGID_2_);}
	.st3{fill:url(#SVGID_3_);}
	.st4{fill:url(#SVGID_4_);}
	.st5{fill:#E6E7E8;}
</style>
<g>
	<circle class="st0" cx="90.1" cy="90" r="89.5"/>
	<linearGradient id="SVGID_1_" gradientUnits="userSpaceOnUse" x1="48.6685" y1="137.0193" x2="161.079" y2="-7.7834">
		<stop  offset="0" style="stop-color:#006838"/>
		<stop  offset="0.7837" style="stop-color:#79C68D"/>
	</linearGradient>
	<path class="st1" d="M48.8,74C95.8,27.4,45,11.1,45,11.1s26.7-7.9,47.9,5.4c8.4,5.3,15.5,15,18.8,32.8c14.8-9.7,14.8-33.5-1.2-46.5
		c31.3,8.2,76.1,26.8,9.3,122c-21.2,33.2-7.3,46.5,1.9,48.9c-40.4,19.8-64.9-21.2-12.9-80.6c-4.7,3.6-26.7,15.6-31.1,25.2
		c-4.4-12.2,3.8-26.2,3.8-26.2s-51,28.5-16.2,84C15.8,163.7,1.9,120.6,48.8,74z"/>
	<linearGradient id="SVGID_2_" gradientUnits="userSpaceOnUse" x1="122.4494" y1="99.8388" x2="180" y2="99.8388">
		<stop  offset="0" style="stop-color:#006838"/>
		<stop  offset="1" style="stop-color:#79C68D"/>
	</linearGradient>
	<path class="st2" d="M156.1,29.7c31.5,64.5-57.2,114.3-27.5,139.5C141,178.8,218.2,99.5,156.1,29.7z M132.9,153.5
		c0-14.7,14.3-19.9,35.2-53.9C162.7,143.1,134.4,170.2,132.9,153.5z"/>
	<linearGradient id="SVGID_3_" gradientUnits="userSpaceOnUse" x1="2.6122" y1="83.9983" x2="135.675" y2="42.0789">
		<stop  offset="0" style="stop-color:#006838"/>
		<stop  offset="0.7708" style="stop-color:#79C68D"/>
	</linearGradient>
	<path class="st3" d="M36.1,20.3C26.8,18-22.6,68.6,12.4,134.5C0.2,62.3,95.5,37.8,36.1,20.3z M39,31.4c8.8,8-3.1,10.4-28.8,46.7
		C11.9,43.6,30.2,23.4,39,31.4z"/>
	<linearGradient id="SVGID_4_" gradientUnits="userSpaceOnUse" x1="68.4734" y1="34.7746" x2="104.4724" y2="-11.8385">
		<stop  offset="0" style="stop-color:#006838"/>
		<stop  offset="0.6309" style="stop-color:#79C68D"/>
	</linearGradient>
	<path class="st4" d="M61.9,4.6c0,0,39.4-1.7,46.1,17.6C116.5-3.2,76.2-3.2,61.9,4.6z"/>
</g>
<g>
	<path class="st0" d="M216.6,115.2c-0.2,3.1-0.4,6.1-0.7,9c-0.3,2.8-0.5,5.3-0.6,7.4c-0.1,0.8-0.2,1.4-0.5,1.6
		c-0.3,0.3-0.9,0.4-1.7,0.4h-3.7c-2.1,0-3.8-0.2-5.2-0.7c-1.3-0.4-2.4-1.1-3.2-1.9c-0.8-0.8-1.3-1.8-1.6-3c-0.3-1.2-0.5-2.6-0.5-4.1
		c0-1,0.1-2.5,0.2-4.4c0.1-1.9,0.3-4.5,0.6-7.8c0.3-3.3,0.6-7.5,1-12.6c0.4-5.1,0.8-11.4,1.4-18.9c0.1-1.5,0.2-2.4,0.5-2.7
		c0.2-0.2,0.8-0.3,1.6-0.3h4c2,0,3.7,0.2,5,0.7c1.3,0.5,2.4,1.1,3.2,1.8c0.8,0.8,1.4,1.6,1.7,2.7c0.3,1,0.5,2.1,0.6,3.2
		c2-3.7,4.2-6.2,6.8-7.5c2.5-1.3,5.5-1.9,8.9-1.9c1.8,0,3.6,0.2,5.3,0.5c1.7,0.3,3.2,0.9,4.6,1.7c1.4,0.8,2.5,1.9,3.5,3.2
		c1,1.3,1.6,3,2,5.1c2.1-4,4.4-6.7,7-8.2c2.5-1.5,5.7-2.3,9.5-2.3c2.1,0,4.1,0.2,6.1,0.7c1.9,0.4,3.6,1.2,5.1,2.3
		c1.4,1.1,2.6,2.6,3.4,4.5c0.9,1.9,1.3,4.2,1.3,7c0,2.1-0.1,4.7-0.3,7.8c-0.2,3.1-0.4,6.4-0.7,10c-0.3,3.6-0.6,7.3-0.9,11.1
		c-0.3,3.8-0.6,7.4-0.8,10.9c-0.1,0.8-0.1,1.3-0.2,1.7c-0.1,0.4-0.2,0.7-0.4,0.9c-0.2,0.2-0.4,0.3-0.8,0.4c-0.3,0.1-0.8,0.1-1.4,0.1
		h-3.3c-2.2,0-4-0.2-5.3-0.6c-1.4-0.4-2.4-1-3.2-1.7c-0.8-0.8-1.3-1.7-1.6-2.8s-0.5-2.4-0.5-3.8c0-0.9,0.1-2.1,0.2-3.8
		c0.1-1.6,0.2-3.4,0.4-5.3c0.2-1.9,0.3-3.9,0.5-5.9c0.2-2,0.3-3.9,0.5-5.7c0.2-1.7,0.3-3.3,0.4-4.6c0.1-1.3,0.2-2.1,0.2-2.6
		c0-1.8-0.4-3.3-1.1-4.7c-0.7-1.4-2.1-2-4.1-2c-1.8,0-3.3,0.6-4.6,1.7c-1.3,1.2-2.4,2.8-3.3,4.8c-0.9,2-1.6,4.5-2.1,7.3
		c-0.5,2.8-0.9,5.8-1.1,9.1c-0.1,2.1-0.3,4.5-0.5,7.3c-0.2,2.7-0.4,6.1-0.7,10.2c-0.1,0.8-0.1,1.3-0.2,1.7c-0.1,0.4-0.2,0.7-0.4,0.9
		c-0.2,0.2-0.4,0.3-0.8,0.4c-0.3,0.1-0.8,0.1-1.4,0.1h-3.3c-2.2,0-4-0.2-5.3-0.6c-1.4-0.4-2.4-1-3.2-1.7c-0.8-0.8-1.3-1.7-1.6-2.8
		s-0.5-2.4-0.5-3.8c0-1.4,0.1-3.4,0.4-6c0.2-2.6,0.5-5.4,0.7-8.2c0.2-2.8,0.5-5.5,0.7-8.1c0.2-2.6,0.4-4.4,0.4-5.6
		c0-1.8-0.4-3.3-1.1-4.7c-0.7-1.4-2.1-2-4.1-2c-1.8,0-3.4,0.7-4.7,2c-1.3,1.4-2.4,3.2-3.2,5.5c-0.9,2.3-1.5,5-2,8
		C217.1,108.7,216.8,111.9,216.6,115.2z"/>
	<path class="st0" d="M288.1,121.1c0-6.1,2.8-11,8.3-14.4c5.5-3.5,13.7-5.4,24.5-5.6c0.1-0.8,0.1-1.4,0.2-1.9c0-0.5,0.1-1.1,0.1-1.9
		c0-2.2-0.4-3.9-1.2-5.2c-0.8-1.3-2.5-1.9-5.1-1.9c-1.4,0-2.6,0.2-3.5,0.6c-0.9,0.4-1.6,1-2.2,1.7c-0.5,0.7-1,1.6-1.3,2.6
		c-0.3,1-0.6,2.1-0.9,3.4c-0.1,0.6-0.4,1-0.9,1.2c-0.5,0.2-1.2,0.3-2.3,0.3c-7,0-10.4-2.6-10.4-7.9c0-2.1,0.5-4.1,1.5-6
		c1-1.9,2.5-3.6,4.4-5c1.9-1.4,4.4-2.5,7.3-3.3c2.9-0.8,6.3-1.2,10.2-1.2c7.6,0,13.1,1.6,16.5,4.7c3.4,3.1,5.1,7.6,5.1,13.3
		c0,0.8-0.1,2.1-0.3,4c-0.2,1.9-0.4,4-0.6,6.1c-0.2,2.1-0.4,4.2-0.6,6.1c-0.2,1.9-0.3,3.2-0.3,4c0,1.7,0.3,2.9,0.9,3.6
		c0.6,0.7,1.3,1.2,2.1,1.5c0.8,0.3,1.5,0.5,2.1,0.6s0.9,0.5,0.9,1c0,1.5-0.2,3-0.6,4.6c-0.4,1.6-1.1,3-2,4.3
		c-0.9,1.3-2.2,2.4-3.8,3.2c-1.6,0.8-3.6,1.2-5.9,1.2c-3.3,0-5.7-0.8-7.4-2.4s-2.7-3.8-3.3-6.6c-1.6,2.4-3.8,4.5-6.4,6.2
		c-2.6,1.8-6.1,2.7-10.3,2.7c-2,0-4-0.2-5.8-0.7c-1.8-0.5-3.4-1.3-4.7-2.4c-1.3-1.1-2.4-2.5-3.2-4.2
		C288.5,125.6,288.1,123.5,288.1,121.1z M320,109.4c-1.8,0-3.5,0.1-5.2,0.4c-1.7,0.3-3.2,0.7-4.6,1.3c-1.3,0.6-2.4,1.3-3.2,2.3
		c-0.8,1-1.2,2.1-1.2,3.5c0,1.6,0.5,2.7,1.5,3.3c1,0.6,2.1,0.9,3.2,0.9c1.1,0,2.2-0.2,3.3-0.7s2.1-1.2,2.9-2.2
		c0.9-1,1.6-2.2,2.2-3.6C319.5,113.1,319.8,111.4,320,109.4z"/>
	<path class="st0" d="M381.9,101.8c-0.4,0-0.9,0-1.4-0.1c-0.5,0-1-0.1-1.5-0.2c-0.5-0.1-0.9-0.2-1.2-0.4c-0.3-0.2-0.5-0.4-0.5-0.7
		c0-0.9,0-1.7,0.1-2.5c0.1-0.8,0.1-1.5,0.1-2.4c0-1.5-0.2-2.7-0.6-3.7c-0.4-1-1.2-1.4-2.5-1.4c-1.9,0-3.5,1.2-4.8,3.7
		c-1.3,2.5-2.1,6.2-2.4,11.2c-0.1,2.2-0.3,4.7-0.6,7.4c-0.2,2.8-0.5,5.4-0.7,8c-0.2,2.6-0.4,4.8-0.5,6.8c-0.1,2-0.2,3.3-0.2,3.9
		c0,0.7-0.2,1.2-0.7,1.5c-0.5,0.3-1,0.5-1.5,0.5h-3.7c-2.1,0-3.8-0.2-5.2-0.7c-1.3-0.4-2.4-1.1-3.2-1.9c-0.8-0.8-1.3-1.8-1.6-3
		c-0.3-1.2-0.5-2.6-0.5-4.1c0-1,0.1-2.5,0.2-4.4c0.1-1.9,0.3-4.5,0.6-7.8c0.3-3.3,0.6-7.5,1-12.6c0.4-5.1,0.8-11.4,1.4-18.9
		c0.1-2,0.9-3,2.2-3h4c1.9,0,3.5,0.2,4.8,0.6c1.3,0.4,2.4,1,3.2,1.7s1.4,1.6,1.8,2.5c0.4,1,0.6,1.9,0.8,3c0.8-1.6,1.8-2.9,2.9-4
		c1.1-1.1,2.3-2,3.5-2.8s2.5-1.2,3.8-1.5c1.3-0.3,2.5-0.5,3.6-0.5c1.3,0,2.6,0.2,3.9,0.7c1.3,0.5,2.5,1.2,3.6,2.1
		c1.1,1,2,2.2,2.6,3.7c0.6,1.5,1,3.3,1,5.3c0,1.8-0.3,3.6-0.8,5.2c-0.5,1.6-1.3,3.1-2.4,4.4c-1,1.3-2.3,2.3-3.7,3
		S383.7,101.8,381.9,101.8z"/>
	<path class="st0" d="M421.3,134.7c-5.3,0-9.4-0.8-12.5-2.3c-3.1-1.5-5.4-3.5-7-5.8c-1.6-2.3-2.6-4.8-3-7.5
		c-0.4-2.7-0.6-5.2-0.6-7.4c0-0.9,0.1-2.6,0.3-5.2c0.2-2.6,0.4-5.6,0.7-9c0.3-3.4,0.5-7,0.8-10.9c0.3-3.9,0.5-7.5,0.8-11
		c0.3-3.4,0.5-6.5,0.7-9.2c0.2-2.7,0.3-4.5,0.3-5.5c0-1.5,0.1-2.4,0.3-2.6c0.2-0.2,0.8-0.4,1.8-0.4h4c2,0,3.8,0.2,5.1,0.7
		c1.4,0.5,2.5,1.1,3.3,1.9c0.8,0.8,1.4,1.8,1.7,2.8c0.3,1.1,0.5,2.2,0.5,3.4c0,1.2-0.1,3.4-0.4,6.8c-0.2,3.3-0.5,7.3-0.9,11.8
		c1.8-3.1,3.8-5.3,6-6.8c2.3-1.5,5.2-2.2,8.9-2.2c6.2,0,11,2,14.3,6.1c3.3,4.1,5,10.2,5,18.3c0,2.1-0.2,4.4-0.5,7
		c-0.3,2.5-0.9,5-1.6,7.5c-0.8,2.5-1.9,4.9-3.3,7.3c-1.4,2.4-3.2,4.4-5.5,6.2c-2.3,1.8-5,3.2-8.1,4.3
		C429.3,134.1,425.6,134.7,421.3,134.7z M425.9,89.9c-2.5,0-4.4,0.6-5.8,1.9c-1.4,1.3-2.5,2.9-3.2,4.7c-0.8,1.8-1.2,3.8-1.4,5.9
		c-0.2,2.1-0.3,3.9-0.3,5.5c0,4.7,0.6,8.1,1.9,10.1c1.3,2,3.2,3,5.8,3c2.5,0,4.4-0.8,5.8-2.3c1.4-1.5,2.5-3.4,3.2-5.5
		c0.7-2.1,1.2-4.3,1.4-6.5c0.2-2.2,0.3-3.9,0.3-5.1c0-3.8-0.6-6.7-1.7-8.8C430.7,91,428.7,89.9,425.9,89.9z"/>
	<path class="st0" d="M471.2,134.6c-4.2,0-7.3-1.1-9.1-3.4s-2.8-6-2.8-11.2c0-0.8,0.1-1.8,0.2-3.1s0.2-2.8,0.4-4.8
		c0.2-1.9,0.4-4.4,0.7-7.2c0.3-2.9,0.6-6.3,0.9-10.4c0.3-4.1,0.6-8.9,1-14.4c0.4-5.5,0.8-11.9,1.2-19.2c0.1-1.5,0.2-2.4,0.5-2.7
		c0.2-0.2,0.8-0.3,1.6-0.3h4c2,0,3.8,0.2,5.1,0.7c1.4,0.5,2.5,1.1,3.3,1.9c0.8,0.8,1.4,1.8,1.7,2.8c0.3,1.1,0.5,2.2,0.5,3.3
		c0,1.4-0.1,3.3-0.3,5.9c-0.2,2.6-0.4,5.4-0.7,8.7c-0.3,3.2-0.5,6.6-0.8,10c-0.3,3.5-0.5,6.8-0.8,10c-0.3,3.2-0.5,6-0.7,8.5
		c-0.2,2.5-0.3,4.4-0.3,5.7c0,1.8,0.3,3,1,3.8c0.6,0.8,1.3,1.3,2.1,1.6c0.8,0.3,1.4,0.5,2.1,0.6c0.6,0.1,1,0.3,1,0.7
		c0,1.5-0.2,3-0.5,4.5c-0.3,1.5-1,2.8-1.8,4c-0.9,1.2-2.1,2.1-3.6,2.9C475.5,134.2,473.6,134.6,471.2,134.6z"/>
	<path class="st0" d="M513.9,134.7c-3,0-6-0.4-9-1.1c-3-0.8-5.6-2-8-3.9s-4.3-4.3-5.8-7.4c-1.5-3.1-2.3-6.9-2.3-11.6
		c0-1.7,0.1-3.8,0.4-6.1c0.3-2.4,0.8-4.8,1.6-7.4c0.8-2.5,1.9-5,3.3-7.5c1.4-2.5,3.2-4.7,5.5-6.7c2.3-2,5-3.6,8.2-4.8
		c3.2-1.2,7-1.8,11.5-1.8c3.5,0,6.6,0.4,9,1.2c2.5,0.8,4.4,1.9,5.9,3.3c1.5,1.4,2.6,3,3.3,4.9c0.7,1.8,1,3.8,1,5.9
		c0,3.1-0.6,5.8-1.9,8c-1.3,2.2-2.9,4-4.9,5.5c-2,1.5-4.2,2.6-6.7,3.4c-2.5,0.8-4.9,1.5-7.3,1.9c-2.4,0.4-4.6,0.7-6.6,0.8
		c-2,0.1-3.6,0.2-4.7,0.2c0,1.3,0.2,2.6,0.6,3.8c0.4,1.3,0.9,2.4,1.7,3.3c0.8,1,1.7,1.7,3,2.4c1.2,0.6,2.7,0.9,4.5,0.9
		c1.8,0,3.2-0.3,4.1-0.9c1-0.6,1.8-1.2,2.4-1.9s1.1-1.4,1.6-1.9c0.4-0.6,1-0.9,1.8-0.9c0.3,0,0.9,0.1,1.8,0.3
		c0.9,0.2,1.7,0.5,2.6,1.1c0.9,0.5,1.7,1.3,2.4,2.3c0.7,1,1,2.2,1,3.7c0,2-0.6,3.7-1.8,5.1c-1.2,1.4-2.8,2.6-4.8,3.5
		c-1.9,0.9-4.1,1.5-6.5,1.9C518.4,134.5,516.1,134.7,513.9,134.7z M515.8,89.9c-1.5,0-2.8,0.4-3.8,1.3c-1.1,0.9-1.9,1.9-2.7,3.2
		c-0.7,1.3-1.3,2.7-1.6,4.3c-0.4,1.6-0.7,3.1-0.9,4.5c4.2-0.1,7.7-0.8,10.3-2.2c2.6-1.4,3.9-3.3,3.9-5.8c0-1.4-0.4-2.6-1.3-3.7
		C518.9,90.5,517.6,89.9,515.8,89.9z"/>
</g>
<g>
	<path class="st5" d="M202,41h8c3,0,5.3,0.7,6.9,2c1.6,1.3,2.4,3.3,2.4,5.9c0,2.6-0.8,4.7-2.5,6.1c-1.7,1.4-4.1,2.1-7.2,2.1h-2.3V66
		H202V41z M207.3,45.4v7.4h1.7c3.2,0,4.9-1.3,4.9-3.8c0-1.3-0.3-2.2-1-2.8c-0.7-0.6-1.7-0.9-3.2-0.9H207.3z"/>
	<path class="st5" d="M224,41h7.3c3.4,0,5.9,0.6,7.5,1.8c1.6,1.2,2.5,3.1,2.5,5.6c0,1.5-0.4,2.8-1.2,3.9c-0.8,1.1-2,2-3.4,2.7
		c4,6,6.5,9.6,7.3,10.9h-5.9l-6-9.6h-2.8V66H224V41z M229.3,45.4v6.8h1.7c1.7,0,2.9-0.3,3.7-0.8c0.8-0.6,1.2-1.4,1.2-2.6
		c0-1.2-0.4-2-1.2-2.5c-0.8-0.5-2.1-0.8-3.8-0.8H229.3z"/>
	<path class="st5" d="M249.1,63c-2.1-2.2-3.1-5.4-3.1-9.6c0-4.2,1-7.3,3.1-9.5c2.1-2.2,5-3.3,8.8-3.3c3.8,0,6.8,1.1,8.8,3.3
		c2,2.2,3.1,5.4,3.1,9.5s-1,7.3-3.1,9.5s-5,3.3-8.8,3.3S251.1,65.3,249.1,63z M257.9,45.1c-2.1,0-3.7,0.7-4.8,2.1
		c-1.1,1.4-1.6,3.5-1.6,6.3c0,5.6,2.1,8.4,6.3,8.4c4.2,0,6.3-2.8,6.3-8.4C264.2,47.9,262.1,45.1,257.9,45.1z"/>
	<path class="st5" d="M280.2,41v23.4c0,2.9-0.7,5.1-2,6.7c-1.3,1.5-3.3,2.3-5.9,2.3c-1.2,0-2.2-0.1-3.1-0.4v-4.4
		c0.9,0.2,1.8,0.3,2.5,0.3c1.2,0,2-0.4,2.5-1.1s0.8-1.9,0.8-3.4V41H280.2z"/>
	<path class="st5" d="M300.9,45.4h-9.1v5.5h8.4v4.3h-8.4v6.4h9.1V66h-14.4V41h14.4V45.4z"/>
	<path class="st5" d="M316.2,66.4c-3.6,0-6.4-1.1-8.3-3.3c-1.9-2.2-2.9-5.4-2.9-9.5c0-0.1,0-0.1,0-0.2c0-2.5,0.5-4.7,1.4-6.7
		s2.3-3.4,4.1-4.5c1.8-1,3.8-1.6,6-1.6c0.1,0,0.2,0,0.2,0c2.4,0,4.9,0.6,7.3,1.8l-1.7,4.3c-2.3-1.1-4.2-1.7-5.6-1.7
		c-2,0-3.5,0.7-4.6,2.2s-1.6,3.6-1.6,6.3c0,5.6,2.1,8.4,6.3,8.4c1.7,0,3.9-0.4,6.4-1.3v4.4C321.1,65.9,318.8,66.4,316.2,66.4z"/>
	<path class="st5" d="M344.9,45.4h-6.8V66h-5.3V45.4H326V41h18.9V45.4z"/>
</g>
</svg>
