<?xml version="1.0" encoding="utf-8"?>
<!-- Generator: Adobe Illustrator 25.2.1, SVG Export Plug-In . SVG Version: 6.00 Build 0)  -->
<svg version="1.1" id="Layer_1" xmlns="http://www.w3.org/2000/svg" xmlns:xlink="http://www.w3.org/1999/xlink" x="0px" y="0px"
	 viewBox="0 0 1244.8 395.6" style="enable-background:new 0 0 1244.8 395.6;" xml:space="preserve">
<style type="text/css">
	.st0{enable-background:new    ;}
	.st1{fill:#061916;}
</style>
<g>
	<g>
		<path d="M36.9,359.3c2.9,0,5.3-0.4,7.3-1.3c2-0.8,3.7-1.8,5.1-2.8c1.4-1,2.6-2,3.7-2.8c1.1-0.8,2.2-1.3,3.3-1.3
			c1.4,0,2.1,1,2.1,3.1c0,1.1-0.1,2.5-0.4,4c-0.3,1.6-0.7,3.3-1.2,5.3c-0.3,1.2-1,2.5-2,3.9c-1.1,1.4-2.6,2.7-4.5,3.9
			c-1.9,1.2-4.2,2.2-7,3c-2.8,0.8-5.9,1.2-9.5,1.2s-7.1-0.5-10.7-1.6c-3.6-1.1-6.8-2.8-9.6-5.4c-2.8-2.5-5.1-5.9-6.8-10.2
			c-1.8-4.3-2.6-9.6-2.6-16.1c0-2.3,0.2-5,0.5-8s0.9-6.2,1.8-9.4c0.9-3.2,2.2-6.4,3.8-9.5c1.6-3.1,3.8-5.9,6.4-8.3
			c2.6-2.4,5.8-4.4,9.5-5.9c3.7-1.5,8.2-2.3,13.4-2.3c4.1,0,7.7,0.5,10.8,1.5c3,1,5.6,2.3,7.6,4c2,1.7,3.5,3.7,4.4,6
			c0.9,2.3,1.4,4.8,1.4,7.3c0,4.5-1.3,7.8-3.9,9.8c-2.6,2.1-6.4,3.1-11.2,3.1c-1.5,0-2.5-0.1-2.9-0.4c-0.4-0.2-0.6-0.8-0.6-1.5
			c-0.1-2.4-0.1-4.4-0.2-6.2c-0.1-1.7-0.3-3.2-0.7-4.4c-0.4-1.2-1.1-2-1.9-2.5c-0.9-0.5-2.1-0.8-3.6-0.8c-2.2,0-4.1,0.5-5.7,1.4
			c-1.6,0.9-2.9,2.2-4,3.7c-1.1,1.5-2,3.2-2.6,5.1c-0.7,1.9-1.2,3.8-1.6,5.8c-0.4,2-0.6,3.9-0.7,5.7s-0.2,3.4-0.2,4.7
			c0,6.4,1.1,11,3.2,13.8C29.1,357.9,32.4,359.3,36.9,359.3z"/>
		<path d="M105.1,300c1.7,0,3.2,0.3,4.4,1c1.2,0.7,2.1,1.5,2.9,2.6c0.8,1.1,1.4,2.3,1.9,3.7c0.5,1.4,0.9,2.8,1.3,4.3
			c2.8,11.3,5.1,20.7,6.9,28c1.8,7.3,3.3,13.3,4.3,17.8c1,4.5,1.8,7.9,2.2,10c0.4,2.2,0.6,3.7,0.6,4.5c0,1-0.2,1.6-0.7,2
			c-0.5,0.4-1.2,0.5-2.2,0.5h-5.4c-3,0-5.4-0.4-7.2-1.1c-1.8-0.7-3.2-1.8-4.1-3.2c-0.9-1.4-1.6-3.1-2-5.1s-0.8-4.3-1.1-6.8H88.7
			l-3.5,14.5c-0.4,1.1-1.2,1.7-2.4,1.7h-5.6c-1.1,0-2.3-0.1-3.5-0.4c-1.2-0.2-2.3-0.6-3.2-1.2c-0.9-0.6-1.7-1.3-2.4-2.2
			c-0.6-0.9-0.9-1.9-0.9-3.2c0-1.5,0.5-4.1,1.5-7.6c1-3.5,2.2-7.5,3.7-11.9c1.5-4.4,3.2-9.1,5-14c1.9-4.9,3.7-9.5,5.4-13.8
			c1.7-4.3,3.3-8.2,4.8-11.4c1.4-3.3,2.5-5.6,3.3-6.9c0.6-1,1.1-1.6,1.5-1.7c0.5-0.2,1.3-0.3,2.6-0.3H105.1z M92.5,343.2h12.1
			l-4.4-27.7L92.5,343.2z"/>
		<path d="M150.6,374.6c-4,0-6.8-0.8-8.5-2.4c-1.6-1.6-2.5-3.9-2.5-7c0-0.8,0.1-2.3,0.2-4.3c0.1-2,0.3-4.4,0.5-7.1
			c0.2-2.7,0.4-5.7,0.7-9c0.2-3.3,0.5-6.6,0.8-9.9c0.6-7.1,1-12.8,1.2-17.2c0.2-4.4,0.4-7.9,0.6-10.4c0.2-3.1,0.4-5.2,0.6-6
			c0.2-0.9,0.7-1.3,1.4-1.3c2.2,0,4.4-0.1,6.7-0.2c2.3-0.1,4.5-0.2,6.6-0.4c2.1-0.1,4.1-0.3,5.9-0.4c1.9-0.1,3.5-0.2,5-0.2
			c4.5,0,8.3,0.6,11.6,1.7c3.2,1.1,5.8,2.7,7.8,4.7c2,2,3.5,4.5,4.4,7.3c0.9,2.9,1.4,6.1,1.4,9.7c0,5.5-1.1,10.3-3.3,14.6
			c-2.2,4.3-5.6,7.5-10.4,9.8l8.8,12.6c1.6,2.4,2.8,4.2,3.7,5.5c0.8,1.3,1.3,2.3,1.3,2.9c0,0.5-0.3,1.2-0.9,2
			c-0.6,0.9-1.5,1.8-2.6,2.6c-1.2,0.9-2.6,1.6-4.2,2.3c-1.6,0.6-3.5,0.9-5.5,0.9c-2.2,0-4.2-0.7-5.8-2.2c-1.6-1.5-3.1-3.4-4.4-5.8
			c-1.3-2.4-2.4-5.2-3.4-8.3c-0.9-3.1-1.8-6.4-2.7-9.9c-2.5-0.1-4.6-0.4-6.2-0.7c-0.2,3.1-0.4,6-0.6,8.8c-0.2,2.8-0.4,5.3-0.5,7.5
			c-0.1,2.2-0.3,4-0.4,5.5c-0.1,1.4-0.2,2.3-0.2,2.6c-0.1,0.6-0.2,1-0.4,1.2c-0.2,0.2-0.6,0.4-1.3,0.4H150.6z M167.6,314.7
			c-0.8,0-1.8,0.1-2.8,0.2c-1.1,0.1-2.2,0.2-3.4,0.4c-0.1,2.5-0.3,5.4-0.5,8.8c-0.2,3.4-0.4,7-0.7,10.9c2.4,0.6,4.6,0.8,6.4,0.8
			c2.2,0,3.9-0.4,5.3-1.3c1.4-0.8,2.4-1.9,3.2-3.1c0.8-1.2,1.3-2.5,1.5-3.9c0.2-1.4,0.4-2.7,0.4-3.8c0-2.9-0.7-5.1-2.1-6.6
			C173.5,315.5,171.1,314.7,167.6,314.7z"/>
		<path d="M218,374.6c-3.9,0-6.7-0.8-8.4-2.3c-1.7-1.5-2.5-3.7-2.5-6.6c0-1.4,0.1-3.8,0.3-7.2c0.2-3.4,0.5-7.3,0.8-11.6
			c0.3-4.3,0.7-8.9,1.1-13.8c0.3-4.8,0.7-9.4,1-13.7c0.3-4.3,0.6-8,0.8-11.2s0.3-5.4,0.3-6.6c0-1,0.6-1.6,1.7-1.6h5.8
			c4.3,0,7.1,0.9,8.6,2.7c1.5,1.8,2.2,4.5,2.2,8.1c0,0.4-0.1,1.5-0.2,3.4c-0.1,1.9-0.3,4.3-0.5,7.1c-0.2,2.9-0.4,6.1-0.7,9.6
			c-0.2,3.5-0.5,7.2-0.7,10.9c-0.2,3.7-0.5,7.3-0.7,10.9c-0.2,3.5-0.5,6.7-0.7,9.6c-0.2,2.9-0.4,5.3-0.5,7.2
			c-0.1,1.9-0.2,3.1-0.3,3.5c-0.1,0.6-0.2,1-0.4,1.2c-0.2,0.2-0.6,0.4-1.3,0.4H218z"/>
		<path d="M289.7,374.6c-2.9,0-5-0.4-6.4-1.3c-1.4-0.8-2.4-1.9-3-3.2c-3.6-7.5-7.1-14.7-10.2-21.5c-3.2-6.9-6.4-13.8-9.7-20.8
			c0.1,7.6,0.2,15.1,0.3,22.6c0.1,7.5,0.3,15,0.4,22.6c0,1.1-0.6,1.6-1.7,1.6h-5.8c-4,0-6.8-0.8-8.5-2.4c-1.6-1.6-2.5-3.9-2.5-7
			c0-0.8,0.1-2.3,0.2-4.3c0.1-2,0.3-4.4,0.5-7.1c0.2-2.7,0.4-5.7,0.7-9c0.2-3.3,0.5-6.6,0.8-9.9c0.4-5.3,0.8-9.7,1-13.2
			c0.3-3.5,0.5-6.5,0.7-8.9c0.2-2.4,0.3-4.5,0.4-6.2c0.1-1.7,0.1-3.4,0.2-5.1c0-1,0.6-1.6,1.7-1.6h8.4c2.3,0,4.2,0.3,5.7,0.8
			c1.5,0.5,2.7,1.2,3.6,2.2c0.9,0.9,1.7,1.9,2.3,3.1c0.6,1.2,1.1,2.4,1.6,3.6c1.7,4.3,3.2,8.1,4.5,11.2c1.3,3.1,2.4,5.9,3.4,8.3
			c1,2.4,1.8,4.4,2.6,6.2c0.7,1.8,1.4,3.4,2,4.8c0.6,1.5,1.3,2.9,1.9,4.3s1.3,2.9,2,4.5c0-4.1,0-8.4-0.1-12.8
			c0-4.4-0.1-8.6-0.1-12.8c0-4.2-0.1-8.2-0.1-12c0-3.8-0.1-7.3-0.1-10.4c0-0.6,0.6-0.9,1.8-0.9h5.8c2.3,0,4.1,0.2,5.5,0.7
			c1.4,0.5,2.4,1.1,3.2,2c0.8,0.9,1.3,1.9,1.5,3.2c0.2,1.3,0.4,2.7,0.4,4.3c0,1.8-0.1,4.4-0.3,8c-0.2,3.6-0.5,7.6-0.7,12.1
			c-0.3,4.5-0.6,9.1-0.9,13.9c-0.4,4.8-0.7,9.2-1,13.3c-0.3,4.1-0.6,7.5-0.8,10.3c-0.2,2.8-0.4,4.5-0.5,5c0,0.6-0.2,1-0.6,1.3
			c-0.4,0.3-0.8,0.4-1.3,0.4H289.7z"/>
		<path d="M364.1,374.6c-3.6,0-6.2-0.8-7.8-2.3c-1.6-1.5-2.4-3.4-2.6-5.6c-0.8,2.4-2.4,4.5-4.9,6.2c-2.5,1.8-6.1,2.7-10.8,2.7
			c-2.7,0-5.4-0.5-8-1.6c-2.6-1.1-4.9-2.9-6.9-5.4c-2-2.5-3.7-5.9-4.9-10.1c-1.2-4.2-1.8-9.4-1.8-15.6c0-2.4,0.1-5.1,0.4-8.2
			c0.3-3.1,0.9-6.3,1.7-9.6c0.9-3.3,2.1-6.4,3.8-9.6c1.6-3.1,3.8-5.9,6.5-8.3c2.7-2.4,6-4.4,9.9-5.9c3.9-1.5,8.6-2.3,14.1-2.3
			c3.6,0,6.8,0.4,9.6,1.2c2.8,0.8,5.2,1.9,7.2,3.3c2,1.4,3.5,3.1,4.6,5.1c1.1,2,1.6,4.3,1.6,6.8c0,4.1-1.3,7.1-4,9.2
			c-2.7,2.1-6.4,3.1-11.2,3.1c-1.5,0-2.5-0.1-2.8-0.4c-0.3-0.2-0.5-0.8-0.6-1.5c-0.1-1.3-0.2-2.5-0.3-3.8c0-1.3-0.2-2.4-0.5-3.5
			c-0.3-1.1-0.9-1.9-1.6-2.5c-0.8-0.6-2-0.9-3.7-0.9c-3.4,0-6.2,1-8.2,2.9c-2,2-3.6,4.3-4.6,7.1c-1,2.8-1.7,5.7-2,8.7
			c-0.3,3-0.4,5.5-0.4,7.5c0,3.4,0.2,6.2,0.6,8.5c0.4,2.3,1,4.1,1.8,5.6c0.8,1.4,1.8,2.5,2.9,3c1.1,0.6,2.4,0.9,3.9,0.9
			c2.7,0,4.9-0.6,6.7-1.7c1.8-1.1,2.9-3.2,3.3-6.1l0.6-5.9c0.2-2,0.5-3.7,0.8-5c0.3-1.3,1.2-1.9,2.5-1.9h5.8c1.7,0,3.2,0.2,4.3,0.6
			c1.1,0.4,1.9,1,2.5,1.9c0.6,0.9,1,2,1.2,3.4s0.3,3.1,0.3,5.1c0,1.4-0.1,3.3-0.2,5.6c-0.1,2.3-0.2,4.7-0.4,7
			c-0.2,2.4-0.4,4.6-0.6,6.6c-0.2,2-0.4,3.4-0.5,4.1c-0.1,0.6-0.3,1.1-0.5,1.3c-0.2,0.2-0.6,0.3-1.3,0.3H364.1z"/>
		<path d="M432.4,344.3l-2,28.8c-0.1,0.6-0.1,1-0.2,1.2c0,0.2-0.4,0.4-1,0.4h-5.8c-3.9,0-6.7-0.8-8.4-2.3c-1.7-1.5-2.5-3.7-2.5-6.6
			c0-1.4,0.1-3.8,0.3-7.2c0.2-3.4,0.5-7.3,0.8-11.6c0.3-4.3,0.7-8.9,1.1-13.8c0.3-4.8,0.7-9.4,1-13.7c0.3-4.3,0.6-8,0.8-11.2
			s0.3-5.4,0.3-6.6c0-1,0.6-1.6,1.7-1.6h37c0.4,0,0.8,0.1,1.2,0.3c0.3,0.2,0.5,0.6,0.5,1.2l-0.4,6.2c-0.1,2.1-0.7,3.8-1.7,5.1
			c-1,1.3-3.1,1.9-6.2,1.9h-14.5l-1,14.8h14.9c0.4,0,0.8,0.1,1.2,0.3c0.3,0.2,0.5,0.6,0.5,1.2l-0.4,6.2c-0.1,2.1-0.7,3.8-1.7,5.1
			c-1,1.3-3.1,1.9-6.2,1.9H432.4z"/>
		<path d="M500.4,298.9c5.1,0,9.5,0.7,13.1,2.2c3.6,1.4,6.6,3.5,8.9,6.3c2.3,2.8,4,6.1,5,10.1c1,4,1.6,8.5,1.6,13.5
			c0,2.8-0.2,5.8-0.6,9.1c-0.4,3.3-1.1,6.6-2.1,9.9c-1,3.3-2.4,6.5-4.1,9.6c-1.8,3.1-4,5.8-6.8,8.2c-2.8,2.4-6.1,4.3-9.9,5.7
			c-3.9,1.4-8.4,2.2-13.6,2.2c-5.8,0-10.6-0.9-14.4-2.6c-3.8-1.7-6.9-4.1-9.1-7.1c-2.3-3-3.9-6.5-4.8-10.6c-0.9-4.1-1.4-8.4-1.4-13
			c0-5.5,0.6-10.8,1.9-16c1.3-5.2,3.4-9.9,6.4-13.9c3-4.1,6.9-7.3,11.8-9.8C487.1,300.1,493.1,298.9,500.4,298.9z M498.2,315.2
			c-2.5,0-4.6,0.4-6.4,1.3c-1.8,0.9-3.3,2-4.5,3.5c-1.2,1.5-2.2,3.1-2.9,4.9c-0.7,1.8-1.3,3.7-1.7,5.6c-0.4,1.9-0.7,3.8-0.8,5.6
			c-0.1,1.8-0.2,3.4-0.2,4.8c0,6.4,1.1,11,3.2,14c2.1,2.9,5.2,4.4,9.1,4.4c3.2,0,5.8-1,7.9-3.1c2-2.1,3.6-4.5,4.8-7.5
			c1.2-2.9,1.9-5.9,2.4-9c0.4-3.1,0.6-5.8,0.6-7.9c0-5.1-0.9-9.2-2.6-12.1C505.2,316.7,502.3,315.2,498.2,315.2z"/>
		<path d="M551.5,374.6c-4,0-6.8-0.8-8.5-2.4c-1.6-1.6-2.5-3.9-2.5-7c0-0.8,0.1-2.3,0.2-4.3c0.1-2,0.3-4.4,0.5-7.1
			c0.2-2.7,0.4-5.7,0.7-9c0.2-3.3,0.5-6.6,0.8-9.9c0.6-7.1,1-12.8,1.2-17.2c0.2-4.4,0.4-7.9,0.6-10.4c0.2-3.1,0.4-5.2,0.6-6
			c0.2-0.9,0.7-1.3,1.4-1.3c2.2,0,4.4-0.1,6.7-0.2c2.3-0.1,4.5-0.2,6.6-0.4c2.1-0.1,4.1-0.3,5.9-0.4c1.9-0.1,3.5-0.2,5-0.2
			c4.5,0,8.3,0.6,11.6,1.7c3.2,1.1,5.8,2.7,7.8,4.7c2,2,3.5,4.5,4.4,7.3c0.9,2.9,1.4,6.1,1.4,9.7c0,5.5-1.1,10.3-3.3,14.6
			c-2.2,4.3-5.6,7.5-10.4,9.8l8.8,12.6c1.6,2.4,2.8,4.2,3.7,5.5c0.8,1.3,1.3,2.3,1.3,2.9c0,0.5-0.3,1.2-0.9,2
			c-0.6,0.9-1.5,1.8-2.6,2.6c-1.2,0.9-2.6,1.6-4.2,2.3s-3.5,0.9-5.5,0.9c-2.2,0-4.2-0.7-5.8-2.2c-1.6-1.5-3.1-3.4-4.4-5.8
			c-1.3-2.4-2.4-5.2-3.4-8.3c-0.9-3.1-1.8-6.4-2.7-9.9c-2.5-0.1-4.6-0.4-6.2-0.7c-0.2,3.1-0.4,6-0.6,8.8c-0.2,2.8-0.4,5.3-0.5,7.5
			c-0.1,2.2-0.3,4-0.4,5.5c-0.1,1.4-0.2,2.3-0.2,2.6c-0.1,0.6-0.2,1-0.4,1.2c-0.2,0.2-0.6,0.4-1.3,0.4H551.5z M568.5,314.7
			c-0.8,0-1.8,0.1-2.8,0.2c-1.1,0.1-2.2,0.2-3.4,0.4c-0.1,2.5-0.3,5.4-0.5,8.8c-0.2,3.4-0.4,7-0.7,10.9c2.4,0.6,4.6,0.8,6.4,0.8
			c2.2,0,3.9-0.4,5.3-1.3c1.4-0.8,2.4-1.9,3.2-3.1c0.8-1.2,1.3-2.5,1.5-3.9c0.2-1.4,0.4-2.7,0.4-3.8c0-2.9-0.7-5.1-2.1-6.6
			C574.4,315.5,572,314.7,568.5,314.7z"/>
		<path d="M670.3,298.9c5.1,0,9.5,0.7,13.1,2.2c3.6,1.4,6.6,3.5,8.9,6.3c2.3,2.8,4,6.1,5,10.1c1,4,1.6,8.5,1.6,13.5
			c0,2.8-0.2,5.8-0.6,9.1c-0.4,3.3-1.1,6.6-2.1,9.9c-1,3.3-2.4,6.5-4.1,9.6c-1.8,3.1-4,5.8-6.8,8.2c-2.8,2.4-6.1,4.3-9.9,5.7
			c-3.9,1.4-8.4,2.2-13.7,2.2c-5.8,0-10.6-0.9-14.4-2.6c-3.8-1.7-6.9-4.1-9.1-7.1c-2.3-3-3.9-6.5-4.8-10.6c-0.9-4.1-1.4-8.4-1.4-13
			c0-5.5,0.6-10.8,1.9-16c1.3-5.2,3.4-9.9,6.4-13.9c3-4.1,6.9-7.3,11.8-9.8C656.9,300.1,663,298.9,670.3,298.9z M668.1,315.2
			c-2.5,0-4.6,0.4-6.4,1.3c-1.8,0.9-3.3,2-4.5,3.5c-1.2,1.5-2.2,3.1-2.9,4.9c-0.7,1.8-1.3,3.7-1.7,5.6c-0.4,1.9-0.7,3.8-0.8,5.6
			c-0.1,1.8-0.2,3.4-0.2,4.8c0,6.4,1.1,11,3.2,14c2.1,2.9,5.2,4.4,9.1,4.4c3.2,0,5.8-1,7.9-3.1c2-2.1,3.6-4.5,4.8-7.5
			c1.2-2.9,1.9-5.9,2.4-9c0.4-3.1,0.6-5.8,0.6-7.9c0-5.1-0.9-9.2-2.6-12.1C675.1,316.7,672.2,315.2,668.1,315.2z"/>
		<path d="M757.5,374.6c-2.9,0-5-0.4-6.4-1.3c-1.4-0.8-2.4-1.9-3-3.2c-3.6-7.5-7.1-14.7-10.2-21.5c-3.2-6.9-6.4-13.8-9.7-20.8
			c0.1,7.6,0.2,15.1,0.3,22.6c0.1,7.5,0.3,15,0.4,22.6c0,1.1-0.6,1.6-1.7,1.6h-5.8c-4,0-6.8-0.8-8.5-2.4c-1.6-1.6-2.5-3.9-2.5-7
			c0-0.8,0.1-2.3,0.2-4.3c0.1-2,0.3-4.4,0.5-7.1c0.2-2.7,0.4-5.7,0.7-9c0.2-3.3,0.5-6.6,0.8-9.9c0.4-5.3,0.8-9.7,1-13.2
			c0.3-3.5,0.5-6.5,0.7-8.9c0.2-2.4,0.3-4.5,0.4-6.2c0.1-1.7,0.1-3.4,0.2-5.1c0-1,0.6-1.6,1.7-1.6h8.4c2.3,0,4.2,0.3,5.7,0.8
			c1.5,0.5,2.7,1.2,3.6,2.2c0.9,0.9,1.7,1.9,2.3,3.1c0.6,1.2,1.1,2.4,1.6,3.6c1.7,4.3,3.2,8.1,4.5,11.2c1.3,3.1,2.4,5.9,3.4,8.3
			c1,2.4,1.8,4.4,2.6,6.2c0.7,1.8,1.4,3.4,2,4.8s1.3,2.9,1.9,4.3c0.6,1.4,1.3,2.9,2,4.5c0-4.1,0-8.4-0.1-12.8
			c0-4.4-0.1-8.6-0.1-12.8c0-4.2-0.1-8.2-0.1-12c0-3.8-0.1-7.3-0.1-10.4c0-0.6,0.6-0.9,1.8-0.9h5.8c2.3,0,4.1,0.2,5.5,0.7
			c1.4,0.5,2.4,1.1,3.2,2c0.8,0.9,1.3,1.9,1.5,3.2c0.2,1.3,0.4,2.7,0.4,4.3c0,1.8-0.1,4.4-0.3,8c-0.2,3.6-0.5,7.6-0.7,12.1
			c-0.3,4.5-0.6,9.1-0.9,13.9c-0.4,4.8-0.7,9.2-1,13.3c-0.3,4.1-0.6,7.5-0.8,10.3c-0.2,2.8-0.4,4.5-0.5,5c0,0.6-0.2,1-0.6,1.3
			c-0.4,0.3-0.8,0.4-1.3,0.4H757.5z"/>
		<path d="M796.2,374.6c-3.9,0-6.7-0.8-8.4-2.3c-1.7-1.5-2.5-3.7-2.5-6.6c0-1.4,0.1-3.8,0.3-7.2c0.2-3.4,0.5-7.3,0.8-11.6
			c0.3-4.3,0.7-8.9,1-13.8c0.3-4.8,0.7-9.4,1.1-13.7c0.3-4.3,0.6-8,0.8-11.2s0.3-5.4,0.3-6.6c0-1,0.6-1.6,1.7-1.6h37
			c0.4,0,0.8,0.1,1.2,0.3c0.3,0.2,0.5,0.6,0.5,1.2l-0.4,6.2c-0.1,2.1-0.7,3.8-1.7,5.1c-1,1.3-3.1,1.9-6.2,1.9h-14.5l-1.1,14.8H821
			c0.4,0,0.8,0.1,1.2,0.3c0.3,0.2,0.5,0.6,0.5,1.2l-0.4,6.2c-0.1,2.1-0.7,3.8-1.7,5.1c-1,1.3-3.1,1.9-6.2,1.9h-9.1l-1.2,15.6h23.1
			c0.4,0,0.8,0.1,1.2,0.4c0.3,0.2,0.5,0.6,0.5,1.1l-0.4,6.2c-0.1,2.1-0.7,3.8-1.7,5.1c-1,1.3-3.1,1.9-6.2,1.9H796.2z"/>
		<path d="M847.8,313.5c-1.6,0-2.9-0.6-4-1.8c-1.1-1.2-1.6-3-1.6-5.2c0-1.3,0.2-2.6,0.6-3.9c0.4-1.3,1-2.4,1.9-3.4
			c0.8-1,1.9-1.8,3.2-2.4c1.3-0.6,2.7-0.9,4.4-0.9c1.1,0,2.2,0.2,3.1,0.5c0.9,0.3,1.8,0.8,2.5,1.6c0.7,0.7,1.3,1.7,1.7,3
			s0.6,2.9,0.6,4.8c0,2.8-0.4,5.5-1.3,8.2c-0.8,2.7-2,5-3.4,7.1c-1.4,2.1-3.1,3.8-4.9,5c-1.9,1.3-3.8,1.9-5.7,1.9
			c-1.6,0-2.7-0.4-3.2-1.1c-0.5-0.7-0.8-1.6-0.8-2.6c0-0.3,0.4-0.8,1.1-1.5c0.7-0.7,1.5-1.5,2.4-2.5s1.6-2,2.4-3.2
			C847.4,316,847.8,314.7,847.8,313.5z"/>
		<path d="M898,299c6.6,0,11.5,1.4,14.6,4.3c3.2,2.9,4.8,6.6,4.8,11.2c0,3.9-1.1,6.9-3.3,9c-2.2,2.1-5.3,3.1-9.3,3.1
			c-1.3,0-2.1-0.1-2.4-0.4c-0.4-0.2-0.5-0.8-0.5-1.5c0-0.7-0.1-1.6-0.2-2.7c-0.1-1.1-0.4-2.2-0.8-3.3c-0.4-1.1-1.1-1.9-2-2.7
			c-0.9-0.7-2.2-1.1-3.8-1.1c-2.2,0-4.2,0.7-6,2c-1.8,1.4-2.6,3.1-2.6,5.3c0,1.9,0.7,3.4,2.2,4.6c1.4,1.2,3.2,2.3,5.4,3.3
			c2.2,1,4.5,2,7.1,3.1c2.6,1,4.9,2.4,7.1,4.1c2.2,1.7,4,3.9,5.4,6.4c1.4,2.6,2.2,5.8,2.2,9.7c0,3.1-0.5,6-1.5,8.7
			c-1,2.7-2.5,5-4.5,7c-2,2-4.5,3.6-7.6,4.7s-6.6,1.7-10.7,1.7c-3.5,0-6.7-0.4-9.7-1.2c-3-0.8-5.6-1.7-7.8-2.9s-3.9-2.4-5.2-3.8
			c-1.3-1.4-1.9-2.6-1.9-3.7c0-4.6,0.3-7.9,0.8-10c0.5-2,1.5-3,2.9-3c1,0,2,0.4,3.1,1.3c1.1,0.8,2.3,1.8,3.7,2.8c1.4,1,3,2,4.9,2.8
			c1.9,0.8,4,1.3,6.5,1.3c1,0,1.9-0.1,2.9-0.3s1.8-0.5,2.5-0.9c0.7-0.4,1.3-1,1.8-1.7c0.5-0.7,0.7-1.5,0.7-2.5c0-1.7-0.7-3.2-2-4.2
			c-1.3-1-3-2-5-2.9c-2-0.9-4.2-1.8-6.6-2.7c-2.3-0.9-4.5-2.2-6.6-3.9c-2-1.6-3.7-3.8-5-6.4c-1.3-2.6-2-5.9-2-10
			c0-4.5,0.9-8.4,2.6-11.5c1.7-3.2,3.9-5.7,6.6-7.7c2.7-2,5.7-3.4,9.1-4.3C891.2,299.4,894.6,299,898,299z"/>
		<path d="M1020.3,318.6c-0.6,1.7-1.3,3.9-2.2,6.6c-0.9,2.7-1.8,5.7-2.9,8.9s-2.1,6.6-3.3,10.2c-1.1,3.6-2.3,7.1-3.4,10.6
			c-1.2,3.4-2.3,6.7-3.4,9.8c-1.1,3.1-2.1,5.8-3,8.1c-0.3,0.6-0.9,1-1.7,1.3c-0.9,0.3-2.3,0.5-4.1,0.5c-1.2,0-2.4-0.1-3.7-0.2
			c-1.3-0.1-2.4-0.4-3.5-0.8c-1.1-0.4-2-1-2.8-1.7c-0.8-0.7-1.4-1.6-1.8-2.6c-1-3.6-2-7.5-3-11.9c-0.9-4.4-1.9-8.8-2.8-13.4
			c-0.9-4.5-1.8-9-2.7-13.4c-0.9-4.4-1.8-8.3-2.7-11.9c0,1,0,2.7-0.1,5c-0.1,2.4-0.1,5.1-0.2,8.3c-0.1,3.2-0.2,6.5-0.3,10.2
			c-0.1,3.6-0.2,7.2-0.3,10.7c-0.1,3.5-0.1,6.7-0.2,9.7c-0.1,3-0.1,5.4-0.1,7.3c0,2.1-0.1,3.4-0.4,4c-0.2,0.6-0.7,0.8-1.3,0.8h-5.8
			c-4,0-6.8-0.8-8.5-2.4c-1.6-1.6-2.5-3.9-2.5-7c0-0.8,0.1-2.3,0.2-4.3c0.1-2,0.3-4.4,0.5-7.1c0.2-2.7,0.4-5.7,0.7-9
			c0.2-3.3,0.5-6.6,0.8-9.9c0.3-4.5,0.6-8.3,0.9-11.4c0.2-3,0.4-5.6,0.6-7.6c0.1-2,0.3-3.7,0.4-4.9c0.1-1.3,0.2-2.4,0.2-3.4
			c0-1,0.1-1.9,0.1-2.8c0-0.9,0.1-2,0.1-3.3c0-0.6,0.2-1,0.6-1.2c0.4-0.2,0.8-0.4,1.2-0.4h14.7c2.7,0,5,0.4,6.7,1.3
			c1.7,0.9,3.2,2.2,4.3,4c1.1,1.8,2,4.2,2.7,7.1c0.7,2.9,1.3,6.4,1.9,10.3c0.6,4,1.3,8.6,2,13.8c0.7,5.2,1.7,11.1,2.9,17.6
			c1.1-4.3,2.1-7.9,2.8-10.8c0.8-2.9,1.4-5.3,1.9-7.2c0.5-1.9,1-3.5,1.3-4.8c0.3-1.3,0.7-2.4,0.9-3.5c0.3-1.1,0.6-2.3,0.9-3.5
			c0.3-1.3,0.8-2.8,1.3-4.7c0.5-1.9,1.1-4.3,1.8-7.1c0.7-2.8,1.7-6.4,2.8-10.8c0.1-0.4,0.4-0.8,0.7-1.2c0.3-0.4,1-0.6,1.9-0.6h16.4
			c2.2,0,4,0.2,5.4,0.7c1.4,0.5,2.4,1.1,3.2,1.9c0.8,0.8,1.3,1.9,1.6,3.1c0.3,1.2,0.4,2.6,0.4,4.3c0,1.6-0.1,4.2-0.3,7.8
			c-0.2,3.6-0.4,7.7-0.7,12.2c-0.3,4.5-0.6,9.2-0.9,14c-0.3,4.8-0.6,9.3-0.9,13.4c-0.3,4.1-0.6,7.6-0.8,10.5c-0.2,2.9-0.4,4.6-0.4,5
			c-0.1,0.6-0.2,1-0.4,1.2c-0.2,0.2-0.6,0.4-1.3,0.4h-5.8c-4,0-6.8-0.8-8.5-2.4c-1.6-1.6-2.5-3.6-2.5-6.1c0-0.8,0.1-2.2,0.3-4.2
			c0.2-2,0.4-4.4,0.7-7.1c0.3-2.7,0.6-5.7,0.9-9c0.3-3.3,0.7-6.5,0.9-9.7c0.3-3.2,0.5-6.4,0.8-9.4
			C1019.9,323.6,1020.1,320.9,1020.3,318.6z"/>
		<path d="M1062.6,374.6c-3.9,0-6.7-0.8-8.4-2.3c-1.7-1.5-2.5-3.7-2.5-6.6c0-1.4,0.1-3.8,0.3-7.2c0.2-3.4,0.5-7.3,0.8-11.6
			c0.3-4.3,0.7-8.9,1-13.8c0.3-4.8,0.7-9.4,1.1-13.7c0.3-4.3,0.6-8,0.8-11.2s0.3-5.4,0.3-6.6c0-1,0.6-1.6,1.7-1.6h5.8
			c4.3,0,7.1,0.9,8.6,2.7s2.2,4.5,2.2,8.1c0,0.4-0.1,1.5-0.2,3.4c-0.1,1.9-0.3,4.3-0.5,7.1c-0.2,2.9-0.4,6.1-0.7,9.6
			c-0.2,3.5-0.5,7.2-0.7,10.9c-0.2,3.7-0.5,7.3-0.7,10.9c-0.2,3.5-0.5,6.7-0.7,9.6c-0.2,2.9-0.4,5.3-0.5,7.2
			c-0.1,1.9-0.2,3.1-0.3,3.5c-0.1,0.6-0.2,1-0.4,1.2c-0.2,0.2-0.6,0.4-1.3,0.4H1062.6z"/>
		<path d="M1134.3,374.6c-2.9,0-5-0.4-6.4-1.3c-1.4-0.8-2.4-1.9-3-3.2c-3.6-7.5-7.1-14.7-10.2-21.5c-3.2-6.9-6.4-13.8-9.7-20.8
			c0.1,7.6,0.2,15.1,0.3,22.6c0.1,7.5,0.3,15,0.4,22.6c0,1.1-0.6,1.6-1.7,1.6h-5.8c-4,0-6.8-0.8-8.5-2.4c-1.6-1.6-2.5-3.9-2.5-7
			c0-0.8,0.1-2.3,0.2-4.3c0.1-2,0.3-4.4,0.5-7.1c0.2-2.7,0.4-5.7,0.7-9c0.2-3.3,0.5-6.6,0.8-9.9c0.4-5.3,0.8-9.7,1-13.2
			c0.3-3.5,0.5-6.5,0.7-8.9c0.2-2.4,0.3-4.5,0.4-6.2c0.1-1.7,0.1-3.4,0.2-5.1c0-1,0.6-1.6,1.7-1.6h8.4c2.3,0,4.2,0.3,5.7,0.8
			c1.5,0.5,2.7,1.2,3.6,2.2c0.9,0.9,1.7,1.9,2.3,3.1c0.6,1.2,1.1,2.4,1.6,3.6c1.7,4.3,3.2,8.1,4.5,11.2c1.3,3.1,2.4,5.9,3.4,8.3
			c1,2.4,1.8,4.4,2.6,6.2c0.7,1.8,1.4,3.4,2,4.8s1.3,2.9,1.9,4.3c0.6,1.4,1.3,2.9,2,4.5c0-4.1,0-8.4-0.1-12.8
			c0-4.4-0.1-8.6-0.1-12.8c0-4.2-0.1-8.2-0.1-12c0-3.8-0.1-7.3-0.1-10.4c0-0.6,0.6-0.9,1.8-0.9h5.8c2.3,0,4.1,0.2,5.5,0.7
			c1.4,0.5,2.4,1.1,3.2,2c0.8,0.9,1.3,1.9,1.5,3.2c0.2,1.3,0.4,2.7,0.4,4.3c0,1.8-0.1,4.4-0.3,8c-0.2,3.6-0.5,7.6-0.7,12.1
			c-0.3,4.5-0.6,9.1-0.9,13.9c-0.4,4.8-0.7,9.2-1,13.3c-0.3,4.1-0.6,7.5-0.8,10.3c-0.2,2.8-0.4,4.5-0.5,5c0,0.6-0.2,1-0.6,1.3
			c-0.4,0.3-0.8,0.4-1.3,0.4H1134.3z"/>
		<path d="M1166.4,301.6c0.1-0.6,0.3-1,0.7-1.2c0.4-0.2,0.8-0.4,1.1-0.4c4.8,0,9.2-0.2,13.4-0.5c4.2-0.3,7.4-0.5,9.8-0.5
			c5.9,0,10.9,0.6,15,1.8c4,1.2,7.3,3,9.8,5.6c2.5,2.5,4.3,5.8,5.3,9.8c1.1,4,1.6,8.8,1.6,14.4c0,5.7-0.6,11.2-1.7,16.6
			c-1.2,5.4-3.2,10.2-6,14.4c-2.9,4.2-6.7,7.6-11.6,10.1c-4.9,2.6-11,3.8-18.4,3.8c-3.4,0-6.6-0.1-9.4-0.2c-2.8-0.1-5.3-0.6-7.3-1.3
			c-2-0.7-3.6-1.7-4.7-3.1c-1.1-1.4-1.7-3.3-1.7-5.8c0-0.9,0.1-2.3,0.2-4.1c0.1-1.8,0.2-4,0.4-6.5c0.2-2.5,0.4-5.3,0.6-8.3
			c0.2-3,0.5-6.2,0.8-9.6c0.6-6.9,1-12.5,1.3-16.6c0.3-4.1,0.5-7.4,0.6-9.7c0.1-2.3,0.2-4.1,0.2-5.3
			C1166.3,303.9,1166.4,302.7,1166.4,301.6z M1186,359.1c3.9,0,7.1-0.8,9.4-2.5c2.3-1.7,4.1-3.8,5.4-6.4c1.3-2.6,2.1-5.4,2.5-8.5
			c0.4-3.1,0.6-6,0.6-8.7c0-2.9-0.2-5.5-0.6-7.7c-0.4-2.2-1-4-2-5.5c-0.9-1.5-2.3-2.6-3.9-3.3c-1.7-0.7-3.8-1.1-6.3-1.1
			c-0.8,0-1.8,0-2.9,0.1c-1.2,0.1-2.6,0.2-4.3,0.3c-0.1,2.6-0.3,5.7-0.5,9.2c-0.2,3.5-0.4,7.2-0.7,11.1c-0.2,3.9-0.5,7.8-0.8,11.8
			c-0.3,4-0.6,7.6-0.8,11c1,0.1,2,0.2,2.8,0.3S1185.4,359.1,1186,359.1z"/>
	</g>
	<g class="st0">
		<path class="st1" d="M64.9,210.4c-0.7,11.4-1.5,22.4-2.6,33c-1.1,10.3-1.8,19.4-2.2,27.1c-0.4,2.9-0.7,5.1-1.8,5.9
			c-1.1,1.1-3.3,1.5-6.2,1.5H38.5c-7.7,0-13.9-0.7-19.1-2.6c-4.8-1.5-8.8-4-11.7-7s-4.8-6.6-5.9-11c-1.1-4.4-1.8-9.5-1.8-15
			c0-3.7,0.4-9.2,0.7-16.1s1.1-16.5,2.2-28.6c1.1-12.1,2.2-27.5,3.7-46.2s2.9-41.8,5.1-69.3c0.4-5.5,0.7-8.8,1.8-9.9
			c0.7-0.7,2.9-1.1,5.9-1.1h14.7c7.3,0,13.6,0.7,18.3,2.6c4.8,1.8,8.8,4,11.7,6.6c2.9,2.9,5.1,5.9,6.2,9.9c1.1,3.7,1.8,7.7,2.2,11.7
			C79.9,88.3,88,79.2,97.5,74.4c9.2-4.8,20.2-7,32.6-7c6.6,0,13.2,0.7,19.4,1.8c6.2,1.1,11.7,3.3,16.9,6.2c5.1,2.9,9.2,7,12.8,11.7
			c3.7,4.8,5.9,11,7.3,18.7c7.7-14.7,16.1-24.6,25.7-30.1c9.2-5.5,20.9-8.4,34.8-8.4c7.7,0,15,0.7,22.4,2.6c7,1.5,13.2,4.4,18.7,8.4
			c5.1,4,9.5,9.5,12.5,16.5c3.3,7,4.8,15.4,4.8,25.7c0,7.7-0.4,17.2-1.1,28.6c-0.7,11.4-1.5,23.5-2.6,36.7
			c-1.1,13.2-2.2,26.8-3.3,40.7c-1.1,13.9-2.2,27.1-2.9,40c-0.4,2.9-0.4,4.8-0.7,6.2c-0.4,1.5-0.7,2.6-1.5,3.3
			c-0.7,0.7-1.5,1.1-2.9,1.5c-1.1,0.4-2.9,0.4-5.1,0.4h-12.1c-8.1,0-14.7-0.7-19.4-2.2c-5.1-1.5-8.8-3.7-11.7-6.2
			c-2.9-2.9-4.8-6.2-5.9-10.3c-1.1-4-1.8-8.8-1.8-13.9c0-3.3,0.4-7.7,0.7-13.9c0.4-5.9,0.7-12.5,1.5-19.4c0.7-7,1.1-14.3,1.8-21.6
			c0.7-7.3,1.1-14.3,1.8-20.9c0.7-6.2,1.1-12.1,1.5-16.9c0.4-4.8,0.7-7.7,0.7-9.5c0-6.6-1.5-12.1-4-17.2c-2.6-5.1-7.7-7.3-15-7.3
			c-6.6,0-12.1,2.2-16.9,6.2c-4.8,4.4-8.8,10.3-12.1,17.6c-3.3,7.3-5.9,16.5-7.7,26.8c-1.8,10.3-3.3,21.3-4,33.4
			c-0.4,7.7-1.1,16.5-1.8,26.8c-0.7,9.9-1.5,22.4-2.6,37.4c-0.4,2.9-0.4,4.8-0.7,6.2c-0.4,1.5-0.7,2.6-1.5,3.3
			c-0.7,0.7-1.5,1.1-2.9,1.5c-1.1,0.4-2.9,0.4-5.1,0.4h-12.1c-8.1,0-14.7-0.7-19.4-2.2c-5.1-1.5-8.8-3.7-11.7-6.2
			c-2.9-2.9-4.8-6.2-5.9-10.3c-1.1-4-1.8-8.8-1.8-13.9c0-5.1,0.4-12.5,1.5-22c0.7-9.5,1.8-19.8,2.6-30.1s1.8-20.2,2.6-29.7
			c0.7-9.5,1.5-16.1,1.5-20.5c0-6.6-1.5-12.1-4-17.2c-2.6-5.1-7.7-7.3-15-7.3c-6.6,0-12.5,2.6-17.2,7.3c-4.8,5.1-8.8,11.7-11.7,20.2
			c-3.3,8.4-5.5,18.3-7.3,29.3C67.1,186.2,65.6,197.9,64.9,210.4z"/>
		<path class="st1" d="M327.3,231.7c0-22.4,10.3-40.3,30.4-52.8c20.2-12.5,50.2-19.8,89.8-20.5c0.4-2.9,0.4-5.1,0.7-7
			c0-1.8,0.4-4,0.4-7c0-8.1-1.5-14.3-4.4-19.1c-2.9-4.8-9.2-7-18.7-7c-5.1,0-9.5,0.7-12.8,2.2c-3.3,1.5-5.9,3.7-7.7,6.2
			s-3.7,5.9-4.8,9.5c-1.1,3.7-2.2,7.7-3.3,12.5c-0.4,2.2-1.5,3.7-3.3,4.4c-1.8,0.7-4.4,1.1-8.4,1.1c-25.7,0-38.1-9.5-38.1-29
			c0-7.7,1.8-15,5.5-22c3.7-7,9.2-13.2,16.1-18.3c7-5.1,16.1-9.2,26.8-12.1c10.6-2.9,23.1-4.4,37.4-4.4c27.9,0,48,5.9,60.5,17.2
			s18.7,27.9,18.7,48.7c0,2.9-0.4,7.7-1.1,14.7c-0.7,7-1.5,14.7-2.2,22.4s-1.5,15.4-2.2,22.4s-1.1,11.7-1.1,14.7
			c0,6.2,1.1,10.6,3.3,13.2c2.2,2.6,4.8,4.4,7.7,5.5c2.9,1.1,5.5,1.8,7.7,2.2c2.2,0.4,3.3,1.8,3.3,3.7c0,5.5-0.7,11-2.2,16.9
			c-1.5,5.9-4,11-7.3,15.8c-3.3,4.8-8.1,8.8-13.9,11.7c-5.9,2.9-13.2,4.4-21.6,4.4c-12.1,0-20.9-2.9-27.1-8.8
			c-5.9-5.9-9.9-13.9-12.1-24.2c-5.9,8.8-13.9,16.5-23.5,22.7c-9.5,6.6-22.4,9.9-37.8,9.9c-7.3,0-14.7-0.7-21.3-2.6
			c-6.6-1.8-12.5-4.8-17.2-8.8s-8.8-9.2-11.7-15.4C328.8,248.5,327.3,240.8,327.3,231.7z M443.9,188.8c-6.6,0-12.8,0.4-19.1,1.5
			c-6.2,1.1-11.7,2.6-16.9,4.8c-4.8,2.2-8.8,4.8-11.7,8.4c-2.9,3.7-4.4,7.7-4.4,12.8c0,5.9,1.8,9.9,5.5,12.1
			c3.7,2.2,7.7,3.3,11.7,3.3s8.1-0.7,12.1-2.6c4-1.8,7.7-4.4,10.6-8.1c3.3-3.7,5.9-8.1,8.1-13.2C442,202.3,443.5,196.1,443.9,188.8z
			"/>
		<path class="st1" d="M670.8,161.3c-1.5,0-3.3,0-5.1-0.4c-1.8,0-3.7-0.4-5.5-0.7c-1.8-0.4-3.3-0.7-4.4-1.5
			c-1.1-0.7-1.8-1.5-1.8-2.6c0-3.3,0-6.2,0.4-9.2c0.4-2.9,0.4-5.5,0.4-8.8c0-5.5-0.7-9.9-2.2-13.6s-4.4-5.1-9.2-5.1
			c-7,0-12.8,4.4-17.6,13.6c-4.8,9.2-7.7,22.7-8.8,41.1c-0.4,8.1-1.1,17.2-2.2,27.1c-0.7,10.3-1.8,19.8-2.6,29.3
			c-0.7,9.5-1.5,17.6-1.8,24.9c-0.4,7.3-0.7,12.1-0.7,14.3c0,2.6-0.7,4.4-2.6,5.5c-1.8,1.1-3.7,1.8-5.5,1.8h-13.2
			c-7.7,0-13.9-0.7-19.1-2.6c-4.8-1.5-8.8-4-11.7-7s-4.8-6.6-5.9-11c-1.1-4.4-1.8-9.5-1.8-15c0-3.7,0.4-9.2,0.7-16.1
			s1.1-16.5,2.2-28.6c1.1-12.1,2.2-27.5,3.7-46.2s2.9-41.8,5.1-69.3c0.4-7.3,3.3-11,7.7-11h14.7c7,0,12.8,0.7,17.6,2.2
			c4.8,1.5,8.8,3.7,11.7,6.2c2.9,2.6,5.1,5.9,6.6,9.2c1.5,3.7,2.2,7,2.9,11c2.9-5.9,6.6-10.6,10.6-14.7s8.4-7.3,12.8-10.3
			c4.4-2.9,9.2-4.4,13.9-5.5c4.8-1.1,9.2-1.8,13.2-1.8c4.8,0,9.5,0.7,14.3,2.6c4.8,1.8,9.2,4.4,13.2,7.7c4,3.7,7.3,8.1,9.5,13.6
			c2.2,5.5,3.7,12.1,3.7,19.4c0,6.6-1.1,13.2-2.9,19.1c-1.8,5.9-4.8,11.4-8.8,16.1c-3.7,4.8-8.4,8.4-13.6,11
			C683.2,159.8,677.4,161.3,670.8,161.3z"/>
		<path class="st1" d="M815.5,281.5c-19.4,0-34.5-2.9-45.8-8.4c-11.4-5.5-19.8-12.8-25.7-21.3c-5.9-8.4-9.5-17.6-11-27.5
			s-2.2-19.1-2.2-27.1c0-3.3,0.4-9.5,1.1-19.1c0.7-9.5,1.5-20.5,2.6-33c1.1-12.5,1.8-25.7,2.9-40c1.1-14.3,1.8-27.5,2.9-40.3
			c1.1-12.5,1.8-23.8,2.6-33.7c0.7-9.9,1.1-16.5,1.1-20.2c0-5.5,0.4-8.8,1.1-9.5c0.7-0.7,2.9-1.5,6.6-1.5h14.7
			c7.3,0,13.9,0.7,18.7,2.6c5.1,1.8,9.2,4,12.1,7s5.1,6.6,6.2,10.3c1.1,4,1.8,8.1,1.8,12.5s-0.4,12.5-1.5,24.9
			c-0.7,12.1-1.8,26.8-3.3,43.3c6.6-11.4,13.9-19.4,22-24.9c8.4-5.5,19.1-8.1,32.6-8.1c22.7,0,40.3,7.3,52.4,22.4
			c12.1,15,18.3,37.4,18.3,67.1c0,7.7-0.7,16.1-1.8,25.7c-1.1,9.2-3.3,18.3-5.9,27.5c-2.9,9.2-7,18-12.1,26.8
			c-5.1,8.8-11.7,16.1-20.2,22.7c-8.4,6.6-18.3,11.7-29.7,15.8S831.3,281.5,815.5,281.5z M832.4,117.7c-9.2,0-16.1,2.2-21.3,7
			c-5.1,4.8-9.2,10.6-11.7,17.2c-2.9,6.6-4.4,13.9-5.1,21.6c-0.7,7.7-1.1,14.3-1.1,20.2c0,17.2,2.2,29.7,7,37s11.7,11,21.3,11
			c9.2,0,16.1-2.9,21.3-8.4c5.1-5.5,9.2-12.5,11.7-20.2c2.6-7.7,4.4-15.8,5.1-23.8c0.7-8.1,1.1-14.3,1.1-18.7
			c0-13.9-2.2-24.6-6.2-32.3C849.6,121.3,842.7,117.7,832.4,117.7z"/>
		<path class="st1" d="M998.1,281.1c-15.4,0-26.8-4-33.4-12.5c-6.6-8.4-10.3-22-10.3-41.1c0-2.9,0.4-6.6,0.7-11.4
			c0.4-4.4,0.7-10.3,1.5-17.6c0.7-7,1.5-16.1,2.6-26.4c1.1-10.6,2.2-23.1,3.3-38.1s2.2-32.6,3.7-52.8c1.5-20.2,2.9-43.6,4.4-70.4
			c0.4-5.5,0.7-8.8,1.8-9.9c0.7-0.7,2.9-1.1,5.9-1.1H993c7.3,0,13.9,0.7,18.7,2.6c5.1,1.8,9.2,4,12.1,7s5.1,6.6,6.2,10.3
			c1.1,4,1.8,8.1,1.8,12.1c0,5.1-0.4,12.1-1.1,21.6c-0.7,9.5-1.5,19.8-2.6,31.9c-1.1,11.7-1.8,24.2-2.9,36.7
			c-1.1,12.8-1.8,24.9-2.9,36.7c-1.1,11.7-1.8,22-2.6,31.2c-0.7,9.2-1.1,16.1-1.1,20.9c0,6.6,1.1,11,3.7,13.9
			c2.2,2.9,4.8,4.8,7.7,5.9s5.1,1.8,7.7,2.2c2.2,0.4,3.7,1.1,3.7,2.6c0,5.5-0.7,11-1.8,16.5c-1.1,5.5-3.7,10.3-6.6,14.7
			c-3.3,4.4-7.7,7.7-13.2,10.6C1014.2,280,1006.9,281.1,998.1,281.1z"/>
		<path class="st1" d="M1154.6,281.5c-11,0-22-1.5-33-4c-11-2.6-20.5-7.3-29.3-14.3s-15.8-15.8-21.3-27.1
			c-5.5-11.4-8.4-25.3-8.4-42.5c0-6.2,0.4-13.9,1.5-22.4c1.1-8.8,2.9-17.6,5.9-27.1c2.9-9.2,7-18.3,12.1-27.5s11.7-17.2,20.2-24.6
			c8.4-7.3,18.3-13.2,30.1-17.6c11.7-4.4,25.7-6.6,42.2-6.6c12.8,0,24.2,1.5,33,4.4s16.1,7,21.6,12.1s9.5,11,12.1,18
			c2.6,6.6,3.7,13.9,3.7,21.6c0,11.4-2.2,21.3-7,29.3c-4.8,8.1-10.6,14.7-18,20.2c-7.3,5.5-15.4,9.5-24.6,12.5s-18,5.5-26.8,7
			s-16.9,2.6-24.2,2.9c-7.3,0.4-13.2,0.7-17.2,0.7c0,4.8,0.7,9.5,2.2,13.9c1.5,4.8,3.3,8.8,6.2,12.1c2.9,3.7,6.2,6.2,11,8.8
			c4.4,2.2,9.9,3.3,16.5,3.3s11.7-1.1,15-3.3c3.7-2.2,6.6-4.4,8.8-7c2.2-2.6,4-5.1,5.9-7c1.5-2.2,3.7-3.3,6.6-3.3
			c1.1,0,3.3,0.4,6.6,1.1s6.2,1.8,9.5,4c3.3,1.8,6.2,4.8,8.8,8.4c2.6,3.7,3.7,8.1,3.7,13.6c0,7.3-2.2,13.6-6.6,18.7
			c-4.4,5.1-10.3,9.5-17.6,12.8c-7,3.3-15,5.5-23.8,7C1171.5,280.8,1163,281.5,1154.6,281.5z M1161.6,117.7
			c-5.5,0-10.3,1.5-13.9,4.8c-4,3.3-7,7-9.9,11.7c-2.6,4.8-4.8,9.9-5.9,15.8c-1.5,5.9-2.6,11.4-3.3,16.5c15.4-0.4,28.2-2.9,37.8-8.1
			c9.5-5.1,14.3-12.1,14.3-21.3c0-5.1-1.5-9.5-4.8-13.6C1172.9,119.5,1168.2,117.7,1161.6,117.7z"/>
	</g>
</g>
</svg>
