<?xml version="1.0" encoding="utf-8"?>
<!-- Generator: Adobe Illustrator 25.2.1, SVG Export Plug-In . SVG Version: 6.00 Build 0)  -->
<svg version="1.1" id="Layer_1" xmlns="http://www.w3.org/2000/svg" xmlns:xlink="http://www.w3.org/1999/xlink" x="0px" y="0px"
	 viewBox="0 0 612 612" style="enable-background:new 0 0 612 612;" xml:space="preserve">
<style type="text/css">
	.st0{fill:#D8EBCF;}
	.st1{fill:url(#SVGID_1_);}
	.st2{fill:url(#SVGID_2_);}
	.st3{fill:url(#SVGID_3_);}
	.st4{fill:url(#SVGID_4_);}
	.st5{enable-background:new    ;}
	.st6{fill:#4D4D4F;}
	.st7{fill:#939598;}
</style>
<g>
	<circle class="st0" cx="307.7" cy="232.8" r="89.5"/>
	
		<linearGradient id="SVGID_1_" gradientUnits="userSpaceOnUse" x1="266.3101" y1="334.1783" x2="378.7206" y2="478.9811" gradientTransform="matrix(1 0 0 -1 0 614)">
		<stop  offset="0" style="stop-color:#006838"/>
		<stop  offset="0.7837" style="stop-color:#79C68D"/>
	</linearGradient>
	<path class="st1" d="M266.5,216.8c46.9-46.6-3.9-62.9-3.9-62.9s26.7-7.9,47.9,5.4c8.4,5.3,15.5,15,18.8,32.8
		c14.8-9.7,14.8-33.5-1.2-46.5c31.3,8.2,76.1,26.8,9.3,122c-21.2,33.2-7.3,46.5,1.9,48.9c-40.4,19.8-64.9-21.2-12.9-80.6
		c-4.7,3.6-26.7,15.6-31.1,25.2c-4.4-12.2,3.8-26.2,3.8-26.2s-51,28.5-16.2,84C233.4,306.5,219.5,263.4,266.5,216.8z"/>
	
		<linearGradient id="SVGID_2_" gradientUnits="userSpaceOnUse" x1="340.1199" y1="371.3606" x2="397.6206" y2="371.3606" gradientTransform="matrix(1 0 0 -1 0 614)">
		<stop  offset="0" style="stop-color:#006838"/>
		<stop  offset="1" style="stop-color:#79C68D"/>
	</linearGradient>
	<path class="st2" d="M373.8,172.5c31.5,64.5-57.2,114.3-27.5,139.5C358.6,321.5,435.8,242.3,373.8,172.5z M350.5,296.3
		c0-14.7,14.3-19.9,35.2-53.9C380.4,285.9,352,313,350.5,296.3z"/>
	
		<linearGradient id="SVGID_3_" gradientUnits="userSpaceOnUse" x1="220.2276" y1="387.2357" x2="353.2904" y2="429.155" gradientTransform="matrix(1 0 0 -1 0 614)">
		<stop  offset="0" style="stop-color:#006838"/>
		<stop  offset="0.7708" style="stop-color:#79C68D"/>
	</linearGradient>
	<path class="st3" d="M253.8,163.1c-9.3-2.4-58.8,48.3-23.8,114.2C217.8,205.1,313.1,180.6,253.8,163.1z M256.7,174.2
		c8.8,8-3.1,10.4-28.8,46.7C229.5,186.4,247.8,166.2,256.7,174.2z"/>
	
		<linearGradient id="SVGID_4_" gradientUnits="userSpaceOnUse" x1="286.0685" y1="436.459" x2="322.0676" y2="483.0721" gradientTransform="matrix(1 0 0 -1 0 614)">
		<stop  offset="0" style="stop-color:#006838"/>
		<stop  offset="0.6309" style="stop-color:#79C68D"/>
	</linearGradient>
	<path class="st4" d="M279.5,147.4c0,0,39.4-1.7,46.1,17.6C334.2,139.6,293.8,139.6,279.5,147.4z"/>
</g>
<g class="st5">
	<path class="st6" d="M155,430.3c-0.2,3.1-0.4,6.1-0.7,9c-0.3,2.8-0.5,5.3-0.6,7.4c-0.1,0.8-0.2,1.4-0.5,1.6
		c-0.3,0.3-0.9,0.4-1.7,0.4h-3.7c-2.1,0-3.8-0.2-5.2-0.7c-1.3-0.4-2.4-1.1-3.2-1.9c-0.8-0.8-1.3-1.8-1.6-3c-0.3-1.2-0.5-2.6-0.5-4.1
		c0-1,0.1-2.5,0.2-4.4c0.1-1.9,0.3-4.5,0.6-7.8c0.3-3.3,0.6-7.5,1-12.6c0.4-5.1,0.8-11.4,1.4-18.9c0.1-1.5,0.2-2.4,0.5-2.7
		c0.2-0.2,0.8-0.3,1.6-0.3h4c2,0,3.7,0.2,5,0.7c1.3,0.5,2.4,1.1,3.2,1.8c0.8,0.8,1.4,1.6,1.7,2.7c0.3,1,0.5,2.1,0.6,3.2
		c2-3.7,4.2-6.2,6.8-7.5c2.5-1.3,5.5-1.9,8.9-1.9c1.8,0,3.6,0.2,5.3,0.5c1.7,0.3,3.2,0.9,4.6,1.7c1.4,0.8,2.5,1.9,3.5,3.2
		c1,1.3,1.6,3,2,5.1c2.1-4,4.4-6.7,7-8.2c2.5-1.5,5.7-2.3,9.5-2.3c2.1,0,4.1,0.2,6.1,0.7c1.9,0.4,3.6,1.2,5.1,2.3
		c1.4,1.1,2.6,2.6,3.4,4.5c0.9,1.9,1.3,4.2,1.3,7c0,2.1-0.1,4.7-0.3,7.8c-0.2,3.1-0.4,6.4-0.7,10c-0.3,3.6-0.6,7.3-0.9,11.1
		c-0.3,3.8-0.6,7.4-0.8,10.9c-0.1,0.8-0.1,1.3-0.2,1.7c-0.1,0.4-0.2,0.7-0.4,0.9c-0.2,0.2-0.4,0.3-0.8,0.4c-0.3,0.1-0.8,0.1-1.4,0.1
		h-3.3c-2.2,0-4-0.2-5.3-0.6c-1.4-0.4-2.4-1-3.2-1.7c-0.8-0.8-1.3-1.7-1.6-2.8s-0.5-2.4-0.5-3.8c0-0.9,0.1-2.1,0.2-3.8
		c0.1-1.6,0.2-3.4,0.4-5.3c0.2-1.9,0.3-3.9,0.5-5.9c0.2-2,0.3-3.9,0.5-5.7c0.2-1.7,0.3-3.3,0.4-4.6c0.1-1.3,0.2-2.1,0.2-2.6
		c0-1.8-0.4-3.3-1.1-4.7c-0.7-1.4-2.1-2-4.1-2c-1.8,0-3.3,0.6-4.6,1.7c-1.3,1.2-2.4,2.8-3.3,4.8c-0.9,2-1.6,4.5-2.1,7.3
		c-0.5,2.8-0.9,5.8-1.1,9.1c-0.1,2.1-0.3,4.5-0.5,7.3c-0.2,2.7-0.4,6.1-0.7,10.2c-0.1,0.8-0.1,1.3-0.2,1.7c-0.1,0.4-0.2,0.7-0.4,0.9
		c-0.2,0.2-0.4,0.3-0.8,0.4c-0.3,0.1-0.8,0.1-1.4,0.1h-3.3c-2.2,0-4-0.2-5.3-0.6c-1.4-0.4-2.4-1-3.2-1.7c-0.8-0.8-1.3-1.7-1.6-2.8
		s-0.5-2.4-0.5-3.8c0-1.4,0.1-3.4,0.4-6c0.2-2.6,0.5-5.4,0.7-8.2c0.2-2.8,0.5-5.5,0.7-8.1c0.2-2.6,0.4-4.4,0.4-5.6
		c0-1.8-0.4-3.3-1.1-4.7c-0.7-1.4-2.1-2-4.1-2c-1.8,0-3.4,0.7-4.7,2c-1.3,1.4-2.4,3.2-3.2,5.5c-0.9,2.3-1.5,5-2,8
		C155.6,423.8,155.2,427,155,430.3z"/>
	<path class="st6" d="M226.6,436.1c0-6.1,2.8-11,8.3-14.4s13.7-5.4,24.5-5.6c0.1-0.8,0.1-1.4,0.2-1.9c0-0.5,0.1-1.1,0.1-1.9
		c0-2.2-0.4-3.9-1.2-5.2c-0.8-1.3-2.5-1.9-5.1-1.9c-1.4,0-2.6,0.2-3.5,0.6c-0.9,0.4-1.6,1-2.1,1.7c-0.5,0.7-1,1.6-1.3,2.6
		c-0.3,1-0.6,2.1-0.9,3.4c-0.1,0.6-0.4,1-0.9,1.2c-0.5,0.2-1.2,0.3-2.3,0.3c-7,0-10.4-2.6-10.4-7.9c0-2.1,0.5-4.1,1.5-6
		c1-1.9,2.5-3.6,4.4-5c1.9-1.4,4.4-2.5,7.3-3.3c2.9-0.8,6.3-1.2,10.2-1.2c7.6,0,13.1,1.6,16.5,4.7c3.4,3.1,5.1,7.6,5.1,13.3
		c0,0.8-0.1,2.1-0.3,4c-0.2,1.9-0.4,4-0.6,6.1c-0.2,2.1-0.4,4.2-0.6,6.1c-0.2,1.9-0.3,3.2-0.3,4c0,1.7,0.3,2.9,0.9,3.6
		c0.6,0.7,1.3,1.2,2.1,1.5c0.8,0.3,1.5,0.5,2.1,0.6s0.9,0.5,0.9,1c0,1.5-0.2,3-0.6,4.6c-0.4,1.6-1.1,3-2,4.3
		c-0.9,1.3-2.2,2.4-3.8,3.2c-1.6,0.8-3.6,1.2-5.9,1.2c-3.3,0-5.7-0.8-7.4-2.4c-1.6-1.6-2.7-3.8-3.3-6.6c-1.6,2.4-3.8,4.5-6.4,6.2
		c-2.6,1.8-6.1,2.7-10.3,2.7c-2,0-4-0.2-5.8-0.7c-1.8-0.5-3.4-1.3-4.7-2.4c-1.3-1.1-2.4-2.5-3.2-4.2
		C227,440.7,226.6,438.6,226.6,436.1z M258.4,424.5c-1.8,0-3.5,0.1-5.2,0.4c-1.7,0.3-3.2,0.7-4.6,1.3c-1.3,0.6-2.4,1.3-3.2,2.3
		c-0.8,1-1.2,2.1-1.2,3.5c0,1.6,0.5,2.7,1.5,3.3c1,0.6,2.1,0.9,3.2,0.9c1.1,0,2.2-0.2,3.3-0.7c1.1-0.5,2.1-1.2,2.9-2.2
		c0.9-1,1.6-2.2,2.2-3.6C257.9,428.2,258.3,426.5,258.4,424.5z"/>
	<path class="st6" d="M320.3,416.9c-0.4,0-0.9,0-1.4-0.1c-0.5,0-1-0.1-1.5-0.2s-0.9-0.2-1.2-0.4c-0.3-0.2-0.5-0.4-0.5-0.7
		c0-0.9,0-1.7,0.1-2.5c0.1-0.8,0.1-1.5,0.1-2.4c0-1.5-0.2-2.7-0.6-3.7c-0.4-1-1.2-1.4-2.5-1.4c-1.9,0-3.5,1.2-4.8,3.7
		c-1.3,2.5-2.1,6.2-2.4,11.2c-0.1,2.2-0.3,4.7-0.6,7.4c-0.2,2.8-0.5,5.4-0.7,8c-0.2,2.6-0.4,4.8-0.5,6.8c-0.1,2-0.2,3.3-0.2,3.9
		c0,0.7-0.2,1.2-0.7,1.5c-0.5,0.3-1,0.5-1.5,0.5h-3.7c-2.1,0-3.8-0.2-5.2-0.7c-1.3-0.4-2.4-1.1-3.2-1.9c-0.8-0.8-1.3-1.8-1.6-3
		c-0.3-1.2-0.5-2.6-0.5-4.1c0-1,0.1-2.5,0.2-4.4c0.1-1.9,0.3-4.5,0.6-7.8c0.3-3.3,0.6-7.5,1-12.6c0.4-5.1,0.8-11.4,1.4-18.9
		c0.1-2,0.9-3,2.1-3h4c1.9,0,3.5,0.2,4.8,0.6c1.3,0.4,2.4,1,3.2,1.7s1.4,1.6,1.8,2.5c0.4,1,0.6,1.9,0.8,3c0.8-1.6,1.8-2.9,2.9-4
		c1.1-1.1,2.3-2,3.5-2.8s2.5-1.2,3.8-1.5c1.3-0.3,2.5-0.5,3.6-0.5c1.3,0,2.6,0.2,3.9,0.7c1.3,0.5,2.5,1.2,3.6,2.1
		c1.1,1,2,2.2,2.6,3.7c0.6,1.5,1,3.3,1,5.3c0,1.8-0.3,3.6-0.8,5.2c-0.5,1.6-1.3,3.1-2.4,4.4c-1,1.3-2.3,2.3-3.7,3
		C323.7,416.5,322.1,416.9,320.3,416.9z"/>
	<path class="st6" d="M359.7,449.8c-5.3,0-9.4-0.8-12.5-2.3c-3.1-1.5-5.4-3.5-7-5.8c-1.6-2.3-2.6-4.8-3-7.5
		c-0.4-2.7-0.6-5.2-0.6-7.4c0-0.9,0.1-2.6,0.3-5.2c0.2-2.6,0.4-5.6,0.7-9c0.3-3.4,0.5-7,0.8-10.9c0.3-3.9,0.5-7.5,0.8-11
		c0.3-3.4,0.5-6.5,0.7-9.2c0.2-2.7,0.3-4.5,0.3-5.5c0-1.5,0.1-2.4,0.3-2.6c0.2-0.2,0.8-0.4,1.8-0.4h4c2,0,3.8,0.2,5.1,0.7
		c1.4,0.5,2.5,1.1,3.3,1.9c0.8,0.8,1.4,1.8,1.7,2.8c0.3,1.1,0.5,2.2,0.5,3.4c0,1.2-0.1,3.4-0.4,6.8c-0.2,3.3-0.5,7.3-0.9,11.8
		c1.8-3.1,3.8-5.3,6-6.8c2.3-1.5,5.2-2.2,8.9-2.2c6.2,0,11,2,14.3,6.1c3.3,4.1,5,10.2,5,18.3c0,2.1-0.2,4.4-0.5,7
		c-0.3,2.5-0.9,5-1.6,7.5c-0.8,2.5-1.9,4.9-3.3,7.3c-1.4,2.4-3.2,4.4-5.5,6.2c-2.3,1.8-5,3.2-8.1,4.3S364,449.8,359.7,449.8z
		 M364.4,405c-2.5,0-4.4,0.6-5.8,1.9c-1.4,1.3-2.5,2.9-3.2,4.7c-0.8,1.8-1.2,3.8-1.4,5.9c-0.2,2.1-0.3,3.9-0.3,5.5
		c0,4.7,0.6,8.1,1.9,10.1c1.3,2,3.2,3,5.8,3c2.5,0,4.4-0.8,5.8-2.3c1.4-1.5,2.5-3.4,3.2-5.5s1.2-4.3,1.4-6.5
		c0.2-2.2,0.3-3.9,0.3-5.1c0-3.8-0.6-6.7-1.7-8.8C369.1,406,367.1,405,364.4,405z"/>
	<path class="st6" d="M409.6,449.7c-4.2,0-7.3-1.1-9.1-3.4c-1.8-2.3-2.8-6-2.8-11.2c0-0.8,0.1-1.8,0.2-3.1c0.1-1.2,0.2-2.8,0.4-4.8
		c0.2-1.9,0.4-4.4,0.7-7.2c0.3-2.9,0.6-6.3,0.9-10.4c0.3-4.1,0.6-8.9,1-14.4c0.4-5.5,0.8-11.9,1.2-19.2c0.1-1.5,0.2-2.4,0.5-2.7
		c0.2-0.2,0.8-0.3,1.6-0.3h4c2,0,3.8,0.2,5.1,0.7c1.4,0.5,2.5,1.1,3.3,1.9c0.8,0.8,1.4,1.8,1.7,2.8c0.3,1.1,0.5,2.2,0.5,3.3
		c0,1.4-0.1,3.3-0.3,5.9c-0.2,2.6-0.4,5.4-0.7,8.7c-0.3,3.2-0.5,6.6-0.8,10c-0.3,3.5-0.5,6.8-0.8,10c-0.3,3.2-0.5,6-0.7,8.5
		c-0.2,2.5-0.3,4.4-0.3,5.7c0,1.8,0.3,3,1,3.8c0.6,0.8,1.3,1.3,2.1,1.6c0.8,0.3,1.4,0.5,2.1,0.6c0.6,0.1,1,0.3,1,0.7
		c0,1.5-0.2,3-0.5,4.5c-0.3,1.5-1,2.8-1.8,4c-0.9,1.2-2.1,2.1-3.6,2.9C413.9,449.3,412,449.7,409.6,449.7z"/>
	<path class="st6" d="M452.3,449.8c-3,0-6-0.4-9-1.1s-5.6-2-8-3.9s-4.3-4.3-5.8-7.4c-1.5-3.1-2.3-6.9-2.3-11.6
		c0-1.7,0.1-3.8,0.4-6.1c0.3-2.4,0.8-4.8,1.6-7.4c0.8-2.5,1.9-5,3.3-7.5c1.4-2.5,3.2-4.7,5.5-6.7c2.3-2,5-3.6,8.2-4.8
		c3.2-1.2,7-1.8,11.5-1.8c3.5,0,6.6,0.4,9,1.2s4.4,1.9,5.9,3.3c1.5,1.4,2.6,3,3.3,4.9c0.7,1.8,1,3.8,1,5.9c0,3.1-0.6,5.8-1.9,8
		c-1.3,2.2-2.9,4-4.9,5.5c-2,1.5-4.2,2.6-6.7,3.4c-2.5,0.8-4.9,1.5-7.3,1.9c-2.4,0.4-4.6,0.7-6.6,0.8c-2,0.1-3.6,0.2-4.7,0.2
		c0,1.3,0.2,2.6,0.6,3.8c0.4,1.3,0.9,2.4,1.7,3.3c0.8,1,1.7,1.7,3,2.4c1.2,0.6,2.7,0.9,4.5,0.9c1.8,0,3.2-0.3,4.1-0.9
		c1-0.6,1.8-1.2,2.4-1.9c0.6-0.7,1.1-1.4,1.6-1.9c0.4-0.6,1-0.9,1.8-0.9c0.3,0,0.9,0.1,1.8,0.3c0.9,0.2,1.7,0.5,2.6,1.1
		c0.9,0.5,1.7,1.3,2.4,2.3c0.7,1,1,2.2,1,3.7c0,2-0.6,3.7-1.8,5.1c-1.2,1.4-2.8,2.6-4.8,3.5c-1.9,0.9-4.1,1.5-6.5,1.9
		C456.9,449.6,454.5,449.8,452.3,449.8z M454.2,405c-1.5,0-2.8,0.4-3.8,1.3c-1.1,0.9-1.9,1.9-2.7,3.2c-0.7,1.3-1.3,2.7-1.6,4.3
		c-0.4,1.6-0.7,3.1-0.9,4.5c4.2-0.1,7.7-0.8,10.3-2.2c2.6-1.4,3.9-3.3,3.9-5.8c0-1.4-0.4-2.6-1.3-3.7C457.3,405.6,456,405,454.2,405
		z"/>
</g>
<g class="st5">
	<path class="st7" d="M140.4,356.1h8c3,0,5.3,0.7,6.9,2c1.6,1.3,2.4,3.3,2.4,5.9c0,2.6-0.8,4.7-2.5,6.1c-1.7,1.4-4.1,2.1-7.2,2.1
		h-2.3v8.9h-5.3V356.1z M145.7,360.5v7.4h1.7c3.2,0,4.9-1.3,4.9-3.8c0-1.3-0.3-2.2-1-2.8c-0.7-0.6-1.7-0.9-3.2-0.9H145.7z"/>
	<path class="st7" d="M162.4,356.1h7.3c3.4,0,5.9,0.6,7.5,1.8c1.6,1.2,2.5,3.1,2.5,5.6c0,1.5-0.4,2.8-1.2,3.9c-0.8,1.1-2,2-3.4,2.7
		c4,6,6.5,9.6,7.3,10.9h-5.9l-6-9.6h-2.8v9.6h-5.3V356.1z M167.7,360.5v6.8h1.7c1.7,0,2.9-0.3,3.7-0.8c0.8-0.6,1.2-1.4,1.2-2.6
		c0-1.2-0.4-2-1.2-2.5c-0.8-0.5-2.1-0.8-3.8-0.8H167.7z"/>
	<path class="st7" d="M187.5,378.1c-2.1-2.2-3.1-5.4-3.1-9.6c0-4.2,1-7.3,3.1-9.5c2.1-2.2,5-3.3,8.8-3.3c3.8,0,6.8,1.1,8.8,3.3
		c2,2.2,3.1,5.4,3.1,9.5s-1,7.3-3.1,9.5c-2.1,2.2-5,3.3-8.8,3.3S189.5,380.3,187.5,378.1z M196.3,360.1c-2.1,0-3.7,0.7-4.8,2.1
		c-1.1,1.4-1.6,3.5-1.6,6.3c0,5.6,2.1,8.4,6.3,8.4c4.2,0,6.3-2.8,6.3-8.4C202.6,362.9,200.5,360.1,196.3,360.1z"/>
	<path class="st7" d="M218.7,356.1v23.4c0,2.9-0.7,5.1-2,6.7c-1.3,1.5-3.3,2.3-5.9,2.3c-1.2,0-2.2-0.1-3.1-0.4v-4.4
		c0.9,0.2,1.8,0.3,2.5,0.3c1.2,0,2-0.4,2.5-1.1c0.5-0.7,0.8-1.9,0.8-3.4v-23.4H218.7z"/>
	<path class="st7" d="M239.4,360.5h-9.1v5.5h8.4v4.3h-8.4v6.4h9.1v4.4H225v-25h14.4V360.5z"/>
	<path class="st7" d="M254.7,381.4c-3.6,0-6.4-1.1-8.3-3.3c-1.9-2.2-2.9-5.4-2.9-9.5c0-0.1,0-0.1,0-0.2c0-2.5,0.5-4.7,1.4-6.7
		c0.9-1.9,2.3-3.4,4.1-4.5c1.8-1,3.8-1.6,6-1.6c0.1,0,0.2,0,0.2,0c2.4,0,4.9,0.6,7.3,1.8l-1.7,4.3c-2.3-1.1-4.2-1.7-5.6-1.7
		c-2,0-3.5,0.8-4.6,2.2s-1.6,3.6-1.6,6.3c0,5.6,2.1,8.4,6.3,8.4c1.7,0,3.9-0.4,6.4-1.3v4.4C259.5,381,257.2,381.4,254.7,381.4z"/>
	<path class="st7" d="M283.3,360.5h-6.8v20.6h-5.3v-20.6h-6.8v-4.4h18.9V360.5z"/>
</g>
</svg>
