<?xml version="1.0" encoding="utf-8"?>
<!-- Generator: Adobe Illustrator 25.2.1, SVG Export Plug-In . SVG Version: 6.00 Build 0)  -->
<svg version="1.1" id="Layer_1" xmlns="http://www.w3.org/2000/svg" xmlns:xlink="http://www.w3.org/1999/xlink" x="0px" y="0px"
	 viewBox="0 0 339.6 76.9" style="enable-background:new 0 0 339.6 76.9;" xml:space="preserve">
<style type="text/css">
	.st0{enable-background:new    ;}
	.st1{fill:#011713;}
</style>
<g class="st0">
	<path class="st1" d="M17.7,57.4c-0.2,3.1-0.4,6.1-0.7,9c-0.3,2.8-0.5,5.3-0.6,7.4c-0.1,0.8-0.2,1.4-0.5,1.6
		c-0.3,0.3-0.9,0.4-1.7,0.4h-3.7c-2.1,0-3.8-0.2-5.2-0.7C4,74.7,2.9,74,2.1,73.2s-1.3-1.8-1.6-3S0,67.6,0,66.1c0-1,0.1-2.5,0.2-4.4
		c0.1-1.9,0.3-4.5,0.6-7.8s0.6-7.5,1-12.6s0.8-11.4,1.4-18.9c0.1-1.5,0.2-2.4,0.5-2.7c0.2-0.2,0.8-0.3,1.6-0.3h4c2,0,3.7,0.2,5,0.7
		s2.4,1.1,3.2,1.8c0.8,0.8,1.4,1.6,1.7,2.7c0.3,1,0.5,2.1,0.6,3.2c2-3.7,4.2-6.2,6.8-7.5c2.5-1.3,5.5-1.9,8.9-1.9
		c1.8,0,3.6,0.2,5.3,0.5s3.2,0.9,4.6,1.7c1.4,0.8,2.5,1.9,3.5,3.2c1,1.3,1.6,3,2,5.1c2.1-4,4.4-6.7,7-8.2c2.5-1.5,5.7-2.3,9.5-2.3
		c2.1,0,4.1,0.2,6.1,0.7c1.9,0.4,3.6,1.2,5.1,2.3c1.4,1.1,2.6,2.6,3.4,4.5c0.9,1.9,1.3,4.2,1.3,7c0,2.1-0.1,4.7-0.3,7.8
		c-0.2,3.1-0.4,6.4-0.7,10c-0.3,3.6-0.6,7.3-0.9,11.1c-0.3,3.8-0.6,7.4-0.8,10.9c-0.1,0.8-0.1,1.3-0.2,1.7s-0.2,0.7-0.4,0.9
		c-0.2,0.2-0.4,0.3-0.8,0.4c-0.3,0.1-0.8,0.1-1.4,0.1h-3.3c-2.2,0-4-0.2-5.3-0.6c-1.4-0.4-2.4-1-3.2-1.7c-0.8-0.8-1.3-1.7-1.6-2.8
		s-0.5-2.4-0.5-3.8c0-0.9,0.1-2.1,0.2-3.8c0.1-1.6,0.2-3.4,0.4-5.3c0.2-1.9,0.3-3.9,0.5-5.9s0.3-3.9,0.5-5.7
		c0.2-1.7,0.3-3.3,0.4-4.6c0.1-1.3,0.2-2.1,0.2-2.6c0-1.8-0.4-3.3-1.1-4.7c-0.7-1.4-2.1-2-4.1-2c-1.8,0-3.3,0.6-4.6,1.7
		c-1.3,1.2-2.4,2.8-3.3,4.8s-1.6,4.5-2.1,7.3s-0.9,5.8-1.1,9.1c-0.1,2.1-0.3,4.5-0.5,7.3c-0.2,2.7-0.4,6.1-0.7,10.2
		c-0.1,0.8-0.1,1.3-0.2,1.7c-0.1,0.4-0.2,0.7-0.4,0.9s-0.4,0.3-0.8,0.4c-0.3,0.1-0.8,0.1-1.4,0.1h-3.3c-2.2,0-4-0.2-5.3-0.6
		c-1.4-0.4-2.4-1-3.2-1.7c-0.8-0.8-1.3-1.7-1.6-2.8s-0.5-2.4-0.5-3.8s0.1-3.4,0.4-6c0.2-2.6,0.5-5.4,0.7-8.2
		c0.2-2.8,0.5-5.5,0.7-8.1s0.4-4.4,0.4-5.6c0-1.8-0.4-3.3-1.1-4.7c-0.7-1.4-2.1-2-4.1-2c-1.8,0-3.4,0.7-4.7,2
		c-1.3,1.4-2.4,3.2-3.2,5.5c-0.9,2.3-1.5,5-2,8C18.3,50.8,17.9,54,17.7,57.4z"/>
	<path class="st1" d="M89.3,63.2c0-6.1,2.8-11,8.3-14.4s13.7-5.4,24.5-5.6c0.1-0.8,0.1-1.4,0.2-1.9c0-0.5,0.1-1.1,0.1-1.9
		c0-2.2-0.4-3.9-1.2-5.2c-0.8-1.3-2.5-1.9-5.1-1.9c-1.4,0-2.6,0.2-3.5,0.6s-1.6,1-2.1,1.7s-1,1.6-1.3,2.6s-0.6,2.1-0.9,3.4
		c-0.1,0.6-0.4,1-0.9,1.2s-1.2,0.3-2.3,0.3c-7,0-10.4-2.6-10.4-7.9c0-2.1,0.5-4.1,1.5-6s2.5-3.6,4.4-5s4.4-2.5,7.3-3.3
		s6.3-1.2,10.2-1.2c7.6,0,13.1,1.6,16.5,4.7s5.1,7.6,5.1,13.3c0,0.8-0.1,2.1-0.3,4c-0.2,1.9-0.4,4-0.6,6.1s-0.4,4.2-0.6,6.1
		s-0.3,3.2-0.3,4c0,1.7,0.3,2.9,0.9,3.6s1.3,1.2,2.1,1.5c0.8,0.3,1.5,0.5,2.1,0.6s0.9,0.5,0.9,1c0,1.5-0.2,3-0.6,4.6s-1.1,3-2,4.3
		s-2.2,2.4-3.8,3.2c-1.6,0.8-3.6,1.2-5.9,1.2c-3.3,0-5.7-0.8-7.4-2.4c-1.6-1.6-2.7-3.8-3.3-6.6c-1.6,2.4-3.8,4.5-6.4,6.2
		c-2.6,1.8-6.1,2.7-10.3,2.7c-2,0-4-0.2-5.8-0.7s-3.4-1.3-4.7-2.4c-1.3-1.1-2.4-2.5-3.2-4.2C89.7,67.8,89.3,65.7,89.3,63.2z
		 M121.1,51.5c-1.8,0-3.5,0.1-5.2,0.4s-3.2,0.7-4.6,1.3c-1.3,0.6-2.4,1.3-3.2,2.3c-0.8,1-1.2,2.1-1.2,3.5c0,1.6,0.5,2.7,1.5,3.3
		s2.1,0.9,3.2,0.9s2.2-0.2,3.3-0.7c1.1-0.5,2.1-1.2,2.9-2.2c0.9-1,1.6-2.2,2.2-3.6C120.6,55.2,121,53.5,121.1,51.5z"/>
	<path class="st1" d="M183,44c-0.4,0-0.9,0-1.4-0.1c-0.5,0-1-0.1-1.5-0.2s-0.9-0.2-1.2-0.4c-0.3-0.2-0.5-0.4-0.5-0.7
		c0-0.9,0-1.7,0.1-2.5s0.1-1.5,0.1-2.4c0-1.5-0.2-2.7-0.6-3.7s-1.2-1.4-2.5-1.4c-1.9,0-3.5,1.2-4.8,3.7s-2.1,6.2-2.4,11.2
		c-0.1,2.2-0.3,4.7-0.6,7.4c-0.2,2.8-0.5,5.4-0.7,8c-0.2,2.6-0.4,4.8-0.5,6.8s-0.2,3.3-0.2,3.9c0,0.7-0.2,1.2-0.7,1.5
		s-1,0.5-1.5,0.5h-3.6c-2.1,0-3.8-0.2-5.2-0.7c-1.3-0.4-2.4-1.1-3.2-1.9c-0.8-0.8-1.3-1.8-1.6-3c-0.3-1.2-0.5-2.6-0.5-4.1
		c0-1,0.1-2.5,0.2-4.4s0.3-4.5,0.6-7.8c0.3-3.3,0.6-7.5,1-12.6s0.8-11.4,1.4-18.9c0.1-2,0.9-3,2.1-3h4c1.9,0,3.5,0.2,4.8,0.6
		s2.4,1,3.2,1.7s1.4,1.6,1.8,2.5c0.4,1,0.6,1.9,0.8,3c0.8-1.6,1.8-2.9,2.9-4s2.3-2,3.5-2.8s2.5-1.2,3.8-1.5s2.5-0.5,3.6-0.5
		c1.3,0,2.6,0.2,3.9,0.7s2.5,1.2,3.6,2.1c1.1,1,2,2.2,2.6,3.7s1,3.3,1,5.3c0,1.8-0.3,3.6-0.8,5.2s-1.3,3.1-2.4,4.4
		c-1,1.3-2.3,2.3-3.7,3C186.4,43.6,184.8,44,183,44z"/>
	<path class="st1" d="M222.5,76.8c-5.3,0-9.4-0.8-12.5-2.3s-5.4-3.5-7-5.8s-2.6-4.8-3-7.5s-0.6-5.2-0.6-7.4c0-0.9,0.1-2.6,0.3-5.2
		c0.2-2.6,0.4-5.6,0.7-9c0.3-3.4,0.5-7,0.8-10.9s0.5-7.5,0.8-11c0.3-3.4,0.5-6.5,0.7-9.2S203,4,203,3c0-1.5,0.1-2.4,0.3-2.6
		c0.2-0.2,0.8-0.4,1.8-0.4h4c2,0,3.8,0.2,5.1,0.7c1.4,0.5,2.5,1.1,3.3,1.9s1.4,1.8,1.7,2.8c0.3,1.1,0.5,2.2,0.5,3.4
		c0,1.2-0.1,3.4-0.4,6.8c-0.2,3.3-0.5,7.3-0.9,11.8c1.8-3.1,3.8-5.3,6-6.8c2.3-1.5,5.2-2.2,8.9-2.2c6.2,0,11,2,14.3,6.1
		s5,10.2,5,18.3c0,2.1-0.2,4.4-0.5,7c-0.3,2.5-0.9,5-1.6,7.5c-0.8,2.5-1.9,4.9-3.3,7.3s-3.2,4.4-5.5,6.2s-5,3.2-8.1,4.3
		S226.8,76.8,222.5,76.8z M227.1,32.1c-2.5,0-4.4,0.6-5.8,1.9s-2.5,2.9-3.2,4.7c-0.8,1.8-1.2,3.8-1.4,5.9c-0.2,2.1-0.3,3.9-0.3,5.5
		c0,4.7,0.6,8.1,1.9,10.1c1.3,2,3.2,3,5.8,3c2.5,0,4.4-0.8,5.8-2.3s2.5-3.4,3.2-5.5s1.2-4.3,1.4-6.5c0.2-2.2,0.3-3.9,0.3-5.1
		c0-3.8-0.6-6.7-1.7-8.8C231.8,33.1,229.9,32.1,227.1,32.1z"/>
	<path class="st1" d="M272.3,76.7c-4.2,0-7.3-1.1-9.1-3.4c-1.8-2.3-2.8-6-2.8-11.2c0-0.8,0.1-1.8,0.2-3.1c0.1-1.2,0.2-2.8,0.4-4.8
		c0.2-1.9,0.4-4.4,0.7-7.2c0.3-2.9,0.6-6.3,0.9-10.4s0.6-8.9,1-14.4c0.4-5.5,0.8-11.9,1.2-19.2c0.1-1.5,0.2-2.4,0.5-2.7
		c0.2-0.2,0.8-0.3,1.6-0.3h4c2,0,3.8,0.2,5.1,0.7c1.4,0.5,2.5,1.1,3.3,1.9s1.4,1.8,1.7,2.8c0.3,1.1,0.5,2.2,0.5,3.3
		c0,1.4-0.1,3.3-0.3,5.9c-0.2,2.6-0.4,5.4-0.7,8.7c-0.3,3.2-0.5,6.6-0.8,10c-0.3,3.5-0.5,6.8-0.8,10s-0.5,6-0.7,8.5
		s-0.3,4.4-0.3,5.7c0,1.8,0.3,3,1,3.8c0.6,0.8,1.3,1.3,2.1,1.6s1.4,0.5,2.1,0.6c0.6,0.1,1,0.3,1,0.7c0,1.5-0.2,3-0.5,4.5
		s-1,2.8-1.8,4c-0.9,1.2-2.1,2.1-3.6,2.9C276.7,76.4,274.7,76.7,272.3,76.7z"/>
	<path class="st1" d="M315,76.8c-3,0-6-0.4-9-1.1c-3-0.7-5.6-2-8-3.9c-2.4-1.9-4.3-4.3-5.8-7.4s-2.3-6.9-2.3-11.6
		c0-1.7,0.1-3.8,0.4-6.1c0.3-2.4,0.8-4.8,1.6-7.4c0.8-2.5,1.9-5,3.3-7.5c1.4-2.5,3.2-4.7,5.5-6.7s5-3.6,8.2-4.8
		c3.2-1.2,7-1.8,11.5-1.8c3.5,0,6.6,0.4,9,1.2s4.4,1.9,5.9,3.3s2.6,3,3.3,4.9c0.7,1.8,1,3.8,1,5.9c0,3.1-0.6,5.8-1.9,8
		c-1.3,2.2-2.9,4-4.9,5.5s-4.2,2.6-6.7,3.4s-4.9,1.5-7.3,1.9c-2.4,0.4-4.6,0.7-6.6,0.8c-2,0.1-3.6,0.2-4.7,0.2
		c0,1.3,0.2,2.6,0.6,3.8c0.4,1.3,0.9,2.4,1.7,3.3c0.8,1,1.7,1.7,3,2.4c1.2,0.6,2.7,0.9,4.5,0.9s3.2-0.3,4.1-0.9
		c1-0.6,1.8-1.2,2.4-1.9c0.6-0.7,1.1-1.4,1.6-1.9c0.4-0.6,1-0.9,1.8-0.9c0.3,0,0.9,0.1,1.8,0.3c0.9,0.2,1.7,0.5,2.6,1.1
		c0.9,0.5,1.7,1.3,2.4,2.3s1,2.2,1,3.7c0,2-0.6,3.7-1.8,5.1s-2.8,2.6-4.8,3.5c-1.9,0.9-4.1,1.5-6.5,1.9
		C319.6,76.6,317.3,76.8,315,76.8z M316.9,32.1c-1.5,0-2.8,0.4-3.8,1.3c-1.1,0.9-1.9,1.9-2.7,3.2c-0.7,1.3-1.3,2.7-1.6,4.3
		c-0.4,1.6-0.7,3.1-0.9,4.5c4.2-0.1,7.7-0.8,10.3-2.2c2.6-1.4,3.9-3.3,3.9-5.8c0-1.4-0.4-2.6-1.3-3.7
		C320,32.6,318.7,32.1,316.9,32.1z"/>
</g>
</svg>
